<svg width="47" height="47" viewBox="0 0 47 47" fill="none" xmlns="http://www.w3.org/2000/svg">
<path fill-rule="evenodd" clip-rule="evenodd" d="M32.9714 2.11921C33.5873 -0.694594 37.596 -0.711423 38.2422 2.09902L38.2725 2.23365L38.3297 2.49282C39.0702 5.63984 41.6147 8.03965 44.7988 8.59501C47.7337 9.10661 47.7337 13.3206 44.7988 13.8322C43.233 14.1047 41.7827 14.8338 40.63 15.9278C39.4773 17.0219 38.6735 18.4321 38.3196 19.9815L38.2422 20.3248C37.6027 23.1353 33.5907 23.1184 32.9747 20.3013L32.9108 20.0084C32.571 18.453 31.7754 17.034 30.6256 15.9328C29.4758 14.8315 28.0238 14.0978 26.4552 13.8255C23.5269 13.3172 23.5269 9.10998 26.4552 8.59837C28.0176 8.32651 29.4641 7.59702 30.6115 6.50231C31.759 5.40761 32.5557 3.99695 32.9007 2.44906L32.9478 2.23028L32.9714 2.11921ZM25.8258 17.4269C19.5115 16.3296 18.9158 8.01946 24.0352 5.55569C23.5774 4.73107 23.0927 3.92328 22.5845 3.12895C22.0518 3.10982 21.5185 3.10982 20.9857 3.12895C17.1779 9.085 14.8331 15.8574 14.1431 22.8929H29.4339C29.3329 21.8832 29.1983 20.8768 29.03 19.8839C28.7346 19.2469 28.2895 18.6909 27.7327 18.263C27.176 17.8352 26.5241 17.5483 25.8325 17.4269H25.8258ZM0.0067316 22.8929C0.427436 18.5504 2.13553 14.4324 4.91203 11.0671C7.68853 7.70168 11.4069 5.24224 15.5904 4.00406C12.4417 9.85215 10.5113 16.2778 9.91564 22.8929H0H0.0067316ZM0.0370238 27.1002H9.91901C10.5136 33.715 12.4429 40.1407 15.5904 45.989C11.4063 44.7514 7.68718 42.2922 4.91004 38.9268C2.13291 35.5614 0.424317 31.4431 0.0033658 27.1002H0.0370238ZM14.1431 27.1002C14.8342 34.1359 17.1801 40.9084 20.9891 46.8641C21.5219 46.8837 22.0551 46.8837 22.5879 46.8641C26.3969 40.9084 28.7428 34.1359 29.4339 27.1002H14.1431ZM43.5703 27.1002C43.1496 31.4427 41.4415 35.5606 38.665 38.926C35.8885 42.2914 32.1701 44.7508 27.9866 45.989C31.1341 40.1407 33.0634 33.715 33.658 27.1002H43.5703Z" fill="#DEDEDE"/>
</svg>
