<svg width="30" height="35" viewBox="0 0 30 35" fill="none" xmlns="http://www.w3.org/2000/svg">
<path d="M2.54183 17.5C2.08875 17.5 1.65423 17.6799 1.33386 18.0003C1.01348 18.3207 0.833496 18.7552 0.833496 19.2083V32.875C0.833496 33.328 1.01348 33.7626 1.33386 34.0829C1.65423 34.4033 2.08875 34.5833 2.54183 34.5833C2.99491 34.5833 3.42943 34.4033 3.7498 34.0829C4.07018 33.7626 4.25016 33.328 4.25016 32.875V19.2083C4.25016 18.7552 4.07018 18.3207 3.7498 18.0003C3.42943 17.6799 2.99491 17.5 2.54183 17.5ZM11.0835 0.416626C10.6304 0.416626 10.1959 0.596611 9.87552 0.916985C9.55515 1.23736 9.37516 1.67188 9.37516 2.12496V32.875C9.37516 33.328 9.55515 33.7626 9.87552 34.0829C10.1959 34.4033 10.6304 34.5833 11.0835 34.5833C11.5366 34.5833 11.9711 34.4033 12.2915 34.0829C12.6118 33.7626 12.7918 33.328 12.7918 32.875V2.12496C12.7918 1.67188 12.6118 1.23736 12.2915 0.916985C11.9711 0.596611 11.5366 0.416626 11.0835 0.416626ZM28.1668 24.3333C27.7137 24.3333 27.2792 24.5133 26.9589 24.8337C26.6385 25.154 26.4585 25.5885 26.4585 26.0416V32.875C26.4585 33.328 26.6385 33.7626 26.9589 34.0829C27.2792 34.4033 27.7137 34.5833 28.1668 34.5833C28.6199 34.5833 29.0544 34.4033 29.3748 34.0829C29.6952 33.7626 29.8752 33.328 29.8752 32.875V26.0416C29.8752 25.5885 29.6952 25.154 29.3748 24.8337C29.0544 24.5133 28.6199 24.3333 28.1668 24.3333ZM19.6252 10.6666C19.1721 10.6666 18.7376 10.8466 18.4172 11.167C18.0968 11.4874 17.9168 11.9219 17.9168 12.375V32.875C17.9168 33.328 18.0968 33.7626 18.4172 34.0829C18.7376 34.4033 19.1721 34.5833 19.6252 34.5833C20.0782 34.5833 20.5128 34.4033 20.8331 34.0829C21.1535 33.7626 21.3335 33.328 21.3335 32.875V12.375C21.3335 11.9219 21.1535 11.4874 20.8331 11.167C20.5128 10.8466 20.0782 10.6666 19.6252 10.6666Z" fill="#DEDEDE"/>
</svg>
