<svg width="71" height="84" viewBox="0 0 71 84" fill="none" xmlns="http://www.w3.org/2000/svg">
<path d="M58.4465 79.92C53.914 84.3138 48.9652 83.62 44.2015 81.5387C39.1602 79.4112 34.5352 79.3187 29.2165 81.5387C22.5565 84.4062 19.0415 83.5738 15.064 79.92C-7.50601 56.6563 -4.17601 21.2288 21.4465 19.9338C27.6902 20.2575 32.0377 23.3562 35.6915 23.6337C41.149 22.5237 46.3752 19.3325 52.2027 19.7488C59.1865 20.3038 64.459 23.0787 67.9277 28.0737C53.4977 36.7225 56.9202 55.7313 70.1477 61.05C67.5115 67.9875 64.089 74.8788 58.4002 79.9663L58.4465 79.92ZM35.229 19.6562C34.5352 9.3425 42.9065 0.8325 52.5265 0C53.8677 11.9325 41.704 20.8125 35.229 19.6562Z" fill="#ECECEC"/>
</svg>
