<svg width="96" height="51" viewBox="0 0 96 51" fill="none" xmlns="http://www.w3.org/2000/svg">
<path d="M88.7513 1.1262L47.6813 41.1608L6.61135 1.1262C5.87756 0.409472 4.89252 0.00821668 3.86678 0.00821668C2.84103 0.00821668 1.85599 0.409472 1.1222 1.1262C0.766907 1.47432 0.484644 1.88983 0.291949 2.34841C0.0992538 2.80698 0 3.2994 0 3.79682C0 4.29423 0.0992538 4.78665 0.291949 5.24522C0.484644 5.7038 0.766907 6.11931 1.1222 6.46743L44.8135 49.0658C45.5808 49.8137 46.6098 50.2323 47.6813 50.2323C48.7528 50.2323 49.7819 49.8137 50.5491 49.0658L94.2404 6.47565C94.5982 6.12727 94.8826 5.71074 95.0768 5.25064C95.271 4.79055 95.371 4.29621 95.371 3.79682C95.371 3.29742 95.271 2.80308 95.0768 2.34299C94.8826 1.88289 94.5982 1.46636 94.2404 1.11798C93.5066 0.401252 92.5216 0 91.4958 0C90.4701 0 89.4851 0.401252 88.7513 1.11798V1.1262Z" fill="#DEDEDE"/>
</svg>
