<svg width="24" height="23" viewBox="0 0 24 23" fill="none" xmlns="http://www.w3.org/2000/svg">
<path d="M12 0C5.4 0 0 4.5 0 10C0 11.7 0.5 13.3 1.4 14.8C0.5 15.6 0 16.8 0 18C0 20.8 2.7 23 6 23C8.5 23 10.6 21.8 11.5 20H12.5C13.4 21.8 15.5 23 18 23C21.3 23 24 20.8 24 18C24 16.8 23.5 15.6 22.6 14.8C23.5 13.4 24 11.8 24 10C24 4.5 18.6 0 12 0ZM12 2C17.5 2 22 5.6 22 10C22 10.31 21.974 10.611 21.93 10.91C21.924 10.954 21.913 10.996 21.906 11.04C21.862 11.3054 21.8019 11.5679 21.726 11.826L21.696 11.932C21.6194 12.1685 21.5312 12.4011 21.432 12.629C21.007 13.579 20.358 14.449 19.5 15.199C20.976 15.691 21.963 16.766 21.994 17.943C21.962 19.525 20.18 20.9 18 20.9C16.4 20.9 14.9 20.1 14.3 19L13.7 18H10.3L9.7 19.1C9.1 20.2 7.6 21 6 21C3.8 21 2 19.6 2 18C2 17.803 2.03 17.62 2.08 17.447L2.088 17.422C2.228 16.959 2.506 16.592 2.723 16.305C3.158 15.833 3.768 15.443 4.5 15.199C3.96777 14.7349 3.50026 14.2015 3.11 13.613L3.1 13.6C2.75539 13.0645 2.48303 12.4858 2.29 11.879L2.285 11.867C2.20199 11.5943 2.13751 11.3164 2.092 11.035C2.085 10.993 2.076 10.952 2.07 10.91C2.02446 10.6088 2.00107 10.3046 2 10C2 5.6 6.5 2 12 2ZM6 8V11H8V8H6ZM9 8V11H17V8H9ZM7 12.2V13.6C9.5 16 13.3 16.6 16 15.3V14C13.1 15.1 9.6 14.5 7 12.2Z" fill="#DEDEDE"/>
</svg>
