<svg width="51" height="51" viewBox="0 0 51 51" fill="none" xmlns="http://www.w3.org/2000/svg">
<path d="M0.374879 8.7499C0.375684 7.21468 0.79846 5.70921 1.59701 4.39802C2.39555 3.08683 3.53914 2.02036 4.90281 1.31516C6.26647 0.609951 7.79774 0.293144 9.32929 0.399355C10.8608 0.505566 12.3337 1.03071 13.587 1.9174C14.8402 2.80409 15.8257 4.0182 16.4356 5.42707C17.0455 6.83594 17.2564 8.38534 17.0453 9.90598C16.8342 11.4266 16.2092 12.86 15.2385 14.0494C14.2679 15.2388 12.989 16.1386 11.5415 16.6503V24.2018C13.2384 23.2204 15.1646 22.7051 17.1249 22.7082H33.8749C35.3557 22.7082 36.7758 22.12 37.8229 21.0729C38.87 20.0258 39.4582 18.6057 39.4582 17.1249V16.6503C37.5948 15.9917 36.0242 14.6956 35.024 12.991C34.0239 11.2864 33.6586 9.28304 33.9927 7.33511C34.3267 5.38718 35.3387 3.62009 36.8498 2.34617C38.3608 1.07225 40.2735 0.373535 42.2499 0.373535C44.2262 0.373535 46.139 1.07225 47.65 2.34617C49.161 3.62009 50.173 5.38718 50.5071 7.33511C50.8412 9.28304 50.4759 11.2864 49.4757 12.991C48.4756 14.6956 46.905 15.9917 45.0415 16.6503V17.1249C45.0415 20.0865 43.8651 22.9268 41.7709 25.0209C39.6767 27.1151 36.8365 28.2916 33.8749 28.2916H17.1249C15.6441 28.2916 14.2239 28.8798 13.1769 29.9269C12.1298 30.974 11.5415 32.3941 11.5415 33.8749V34.3495C13.405 35.0081 14.9756 36.3042 15.9757 38.0088C16.9759 39.7134 17.3412 41.7168 17.0071 43.6647C16.673 45.6126 15.661 47.3797 14.15 48.6536C12.639 49.9275 10.7262 50.6263 8.74988 50.6263C6.77351 50.6263 4.86077 49.9275 3.34976 48.6536C1.83874 47.3797 0.82675 45.6126 0.492656 43.6647C0.158563 41.7168 0.523882 39.7134 1.52404 38.0088C2.5242 36.3042 4.0948 35.0081 5.95821 34.3495V16.6503C4.32488 16.0724 2.91089 15.0023 1.91097 13.5874C0.911044 12.1726 0.374379 10.4825 0.374879 8.7499Z" fill="#DEDEDE"/>
</svg>
