<svg width="32" height="32" viewBox="0 0 32 32" fill="none" xmlns="http://www.w3.org/2000/svg">
<path fill-rule="evenodd" clip-rule="evenodd" d="M0.416016 16.0001C0.416016 7.39383 7.3931 0.416748 15.9993 0.416748C24.6056 0.416748 31.5827 7.39383 31.5827 16.0001C31.5827 24.6063 24.6056 31.5834 15.9993 31.5834C7.3931 31.5834 0.416016 24.6063 0.416016 16.0001ZM15.9993 28.7501C14.325 28.7501 12.667 28.4203 11.1201 27.7795C9.57323 27.1388 8.16768 26.1996 6.98374 25.0157C5.79979 23.8317 4.86063 22.4262 4.21988 20.8793C3.57914 19.3324 3.24935 17.6744 3.24935 16.0001C3.24935 14.3257 3.57914 12.6678 4.21988 11.1209C4.86063 9.57397 5.79979 8.16842 6.98374 6.98447C8.16768 5.80052 9.57323 4.86136 11.1201 4.22062C12.667 3.57987 14.325 3.25008 15.9993 3.25008C19.3809 3.25008 22.6239 4.59338 25.015 6.98447C27.406 9.37556 28.7493 12.6186 28.7493 16.0001C28.7493 19.3816 27.406 22.6246 25.015 25.0157C22.6239 27.4068 19.3809 28.7501 15.9993 28.7501Z" fill="#DEDEDE"/>
</svg>
