<svg width="34" height="34" viewBox="0 0 34 34" fill="none" xmlns="http://www.w3.org/2000/svg">
<path d="M14.5099 23.1116L8.49902 17.0993L10.5022 15.0961L14.5099 19.1025L22.5226 11.0884L24.5272 13.093L14.5099 23.1116Z" fill="#DEDEDE"/>
<path fill-rule="evenodd" clip-rule="evenodd" d="M1.41602 17.0001C1.41602 8.39383 8.3931 1.41675 16.9993 1.41675C25.6056 1.41675 32.5827 8.39383 32.5827 17.0001C32.5827 25.6063 25.6056 32.5834 16.9993 32.5834C8.3931 32.5834 1.41602 25.6063 1.41602 17.0001ZM16.9993 29.7501C15.325 29.7501 13.667 29.4203 12.1201 28.7795C10.5732 28.1388 9.16768 27.1996 7.98374 26.0157C6.79979 24.8317 5.86063 23.4262 5.21988 21.8793C4.57914 20.3324 4.24935 18.6744 4.24935 17.0001C4.24935 15.3257 4.57914 13.6678 5.21988 12.1209C5.86063 10.574 6.79979 9.16842 7.98374 7.98447C9.16768 6.80052 10.5732 5.86136 12.1201 5.22062C13.667 4.57987 15.325 4.25008 16.9993 4.25008C20.3809 4.25008 23.6239 5.59338 26.015 7.98447C28.406 10.3756 29.7493 13.6186 29.7493 17.0001C29.7493 20.3816 28.406 23.6246 26.015 26.0157C23.6239 28.4068 20.3809 29.7501 16.9993 29.7501Z" fill="#DEDEDE"/>
</svg>
