<svg width="40" height="44" viewBox="0 0 40 44" fill="none" xmlns="http://www.w3.org/2000/svg">
<path d="M20.1667 15.875C29.6476 15.875 37.3333 12.9928 37.3333 9.4375C37.3333 5.88217 29.6476 3 20.1667 3C10.6858 3 3 5.88217 3 9.4375C3 12.9928 10.6858 15.875 20.1667 15.875Z" stroke="#DEDEDE" stroke-width="4.29167" stroke-linecap="round" stroke-linejoin="round"/>
<path d="M7.37106 22.3125C4.65229 23.4498 3 24.9562 3 26.6042C3 30.1598 10.6864 33.0417 20.1667 33.0417C29.647 33.0417 37.3333 30.1598 37.3333 26.6042C37.3333 24.9562 35.681 23.4498 32.9623 22.3125" stroke="#DEDEDE" stroke-width="4.29167" stroke-linecap="round" stroke-linejoin="round"/>
<path d="M3 9.4375V18.0208C3 21.5765 10.6864 24.4583 20.1667 24.4583C29.647 24.4583 37.3333 21.5765 37.3333 18.0208V9.4375M3 26.6042V35.1875C3 38.7431 10.6864 41.625 20.1667 41.625C29.647 41.625 37.3333 38.7431 37.3333 35.1875V26.6042" stroke="#DEDEDE" stroke-width="4.29167" stroke-linecap="round" stroke-linejoin="round"/>
</svg>
