<svg width="104" height="92" viewBox="0 0 104 92" fill="none" xmlns="http://www.w3.org/2000/svg">
<path d="M88 60C84.4528 60.0034 81.0069 61.1832 78.202 63.3547C75.3972 65.5262 73.3918 68.5667 72.5 72H24C19.7565 72 15.6869 70.3143 12.6863 67.3137C9.68571 64.3131 8 60.2435 8 56C8 51.7565 9.68571 47.6869 12.6863 44.6863C15.6869 41.6857 19.7565 40 24 40H72C77.3043 40 82.3914 37.8929 86.1421 34.1421C89.8929 30.3914 92 25.3043 92 20C92 14.6957 89.8929 9.60859 86.1421 5.85786C82.3914 2.10714 77.3043 0 72 0H24C22.9391 0 21.9217 0.421428 21.1716 1.17157C20.4214 1.92172 20 2.93913 20 4C20 5.06087 20.4214 6.07828 21.1716 6.82843C21.9217 7.57857 22.9391 8 24 8H72C75.1826 8 78.2348 9.26428 80.4853 11.5147C82.7357 13.7652 84 16.8174 84 20C84 23.1826 82.7357 26.2348 80.4853 28.4853C78.2348 30.7357 75.1826 32 72 32H24C17.6348 32 11.5303 34.5286 7.02944 39.0294C2.52856 43.5303 0 49.6348 0 56C0 62.3652 2.52856 68.4697 7.02944 72.9706C11.5303 77.4714 17.6348 80 24 80H72.5C73.248 82.8972 74.7935 85.5265 76.9609 87.5895C79.1283 89.6524 81.8307 91.0663 84.7613 91.6704C87.6918 92.2746 90.7331 92.0449 93.5397 91.0074C96.3462 89.9699 98.8056 88.1662 100.639 85.8011C102.472 83.4361 103.605 80.6044 103.909 77.6277C104.213 74.6511 103.677 71.6487 102.361 68.9615C101.044 66.2744 99.001 64.0102 96.4625 62.4261C93.924 60.842 90.9922 60.0015 88 60Z" fill="#DEDEDE"/>
</svg>
