<svg width="197" height="66" viewBox="0 0 197 66" fill="none" xmlns="http://www.w3.org/2000/svg">
<path d="M48.113 23.599H25.0753V30.4354H41.4171C40.6055 40.0189 32.6297 44.1083 25.1065 44.1083C20.2632 44.1083 15.6183 42.1843 12.1936 38.7595C8.76884 35.3348 6.84485 30.6899 6.84485 25.8466C6.84485 21.0033 8.76884 16.3584 12.1936 12.9337C15.6183 9.50897 20.2632 7.58499 25.1065 7.58499C29.6972 7.57785 34.1117 9.35149 37.4214 12.5328L42.2131 7.56937C37.5848 3.09467 31.3718 0.63642 24.9348 0.732965C21.6368 0.756536 18.3758 1.42946 15.3379 2.71332C12.3 3.99717 9.54469 5.86682 7.22934 8.21551C4.91399 10.5642 3.08392 13.3459 1.84362 16.4019C0.603313 19.4578 -0.0229301 22.7281 0.000641496 26.0261C0.0242131 29.3241 0.697138 32.5851 1.98099 35.623C3.26485 38.6609 5.1345 41.4162 7.48318 43.7316C9.83187 46.0469 12.6136 47.877 15.6695 49.1173C18.7255 50.3576 21.9958 50.9839 25.2938 50.9603C38.7325 50.9603 48.5813 41.7514 48.5813 28.1254C48.6091 26.6057 48.4678 25.0875 48.1599 23.599H48.113ZM66.9834 18.6512C63.7968 18.6636 60.6851 19.619 58.0407 21.3971C55.3962 23.1752 53.3374 25.6964 52.1236 28.6428C50.9098 31.5893 50.5955 34.8291 51.2202 37.9539C51.8449 41.0787 53.3807 43.9487 55.634 46.202C57.8873 48.4553 60.7572 49.9911 63.8821 50.6158C67.0069 51.2405 70.2467 50.9261 73.1931 49.7124C76.1396 48.4986 78.6607 46.4397 80.4388 43.7953C82.2169 41.1509 83.1724 38.0392 83.1847 34.8526C83.2185 32.7157 82.8224 30.5938 82.0202 28.6129C81.2179 26.632 80.0258 24.8326 78.5146 23.3214C77.0034 21.8102 75.2039 20.618 73.2231 19.8158C71.2422 19.0135 69.1203 18.6175 66.9834 18.6512ZM67.077 24.9882C69.0413 24.8724 70.9949 25.3496 72.6846 26.3577C74.3744 27.3658 75.7222 28.8584 76.5533 30.6419C77.3844 32.4254 77.6604 34.4174 77.3456 36.3597C77.0307 38.302 76.1395 40.1048 74.7876 41.5344C73.4356 42.964 71.6853 43.9544 69.7636 44.3771C67.842 44.7998 65.8376 44.6353 64.0105 43.905C62.1835 43.1747 60.618 41.9123 59.5172 40.2814C58.4164 38.6505 57.831 36.7265 57.837 34.7589C57.7714 33.5032 57.9616 32.2472 58.396 31.0672C58.8303 29.8871 59.4997 28.8076 60.3637 27.894C61.2277 26.9804 62.2682 26.2517 63.4222 25.7522C64.5762 25.2527 65.8196 24.9928 67.077 24.9882ZM102.289 18.6512C99.1019 18.6605 95.9887 19.6133 93.3422 21.3896C90.6957 23.1658 88.6344 25.6859 87.4183 28.6321C86.2021 31.5783 85.8855 34.8186 86.5085 37.9444C87.1315 41.0703 88.666 43.9417 90.9187 46.1965C93.1714 48.4514 96.0413 49.9887 99.1666 50.6147C102.292 51.2407 105.532 50.9272 108.48 49.7139C111.427 48.5006 113.949 46.4417 115.728 43.7969C117.507 41.1521 118.463 38.0399 118.475 34.8526C118.509 32.717 118.113 30.5964 117.312 28.6166C116.511 26.6368 115.32 24.838 113.81 23.327C112.301 21.816 110.503 20.6236 108.524 19.8204C106.545 19.0172 104.425 18.6196 102.289 18.6512ZM102.383 24.9882C104.347 24.8724 106.301 25.3496 107.99 26.3577C109.68 27.3658 111.028 28.8584 111.859 30.6419C112.69 32.4254 112.966 34.4174 112.651 36.3597C112.337 38.302 111.445 40.1048 110.093 41.5344C108.741 42.964 106.991 43.9544 105.069 44.3771C103.148 44.7998 101.143 44.6353 99.3164 43.905C97.4893 43.1747 95.9239 41.9123 94.823 40.2814C93.7222 38.6505 93.1368 36.7265 93.1428 34.7589C93.0773 33.5032 93.2674 32.2472 93.7018 31.0672C94.1361 29.8871 94.8056 28.8076 95.6696 27.894C96.5336 26.9804 97.5741 26.2517 98.7281 25.7522C99.882 25.2527 101.125 24.9928 102.383 24.9882ZM136.893 18.6668C128.215 18.6668 121.394 26.268 121.394 34.7901C121.33 38.9547 122.9 42.9784 125.769 45.9984C128.637 49.0184 132.574 50.7941 136.737 50.9447C138.416 51.0362 140.094 50.7289 141.632 50.048C143.17 49.3671 144.525 48.3319 145.586 47.027V50.1486C145.586 55.7208 142.199 59.0453 137.096 59.0453C135.316 59.0306 133.58 58.485 132.112 57.4785C130.644 56.4719 129.51 55.0502 128.854 53.3952L122.611 55.9861C123.819 58.829 125.843 61.2496 128.426 62.9417C131.01 64.6338 134.038 65.5212 137.127 65.4915C145.758 65.4915 152.329 60.0599 152.329 48.6659V19.6345H145.602V22.366C144.499 21.1631 143.151 20.2105 141.648 19.5724C140.146 18.9343 138.524 18.6255 136.893 18.6668ZM137.517 24.9882C141.778 24.9882 146.133 28.6249 146.133 34.8214C146.133 41.0178 141.778 44.6077 137.423 44.6077C136.192 44.5764 134.979 44.2975 133.858 43.7877C132.737 43.2778 131.729 42.5474 130.896 41.64C130.063 40.7326 129.421 39.6668 129.009 38.5061C128.596 37.3453 128.422 36.1134 128.495 34.8838C128.495 28.6405 132.959 24.9882 137.517 24.9882ZM182.469 18.62C174.29 18.62 167.407 25.1286 167.407 34.7433C167.326 36.8622 167.678 38.9754 168.441 40.9539C169.203 42.9324 170.362 44.7346 171.844 46.2507C173.327 47.7668 175.102 48.9649 177.063 49.772C179.024 50.579 181.129 50.978 183.249 50.9447C185.908 50.9499 188.529 50.3074 190.884 49.0728C193.239 47.8381 195.258 46.0485 196.766 43.8585L191.178 40.1438C190.369 41.5174 189.21 42.6524 187.821 43.4337C186.431 44.2149 184.859 44.6146 183.265 44.5921C181.609 44.6605 179.97 44.2318 178.56 43.3612C177.15 42.4906 176.032 41.2178 175.351 39.7067L197 30.732L195.876 28.0942C194.844 25.354 193.013 22.9871 190.619 21.3005C188.226 19.614 185.381 18.6855 182.453 18.6356L182.469 18.62ZM182.75 24.8633C183.971 24.8106 185.182 25.1072 186.241 25.7181C187.299 26.329 188.162 27.229 188.728 28.3127L174.274 34.3531C174.203 33.1724 174.366 31.9892 174.754 30.8717C175.142 29.7543 175.747 28.7247 176.535 27.8424C177.323 26.9602 178.278 26.2427 179.344 25.7314C180.411 25.22 181.568 24.925 182.75 24.8633ZM157.09 49.9926H164.207V2.40305H157.09V49.9926Z" fill="#ECECEC"/>
</svg>
