<svg width="197" height="65" viewBox="0 0 197 65" fill="none" xmlns="http://www.w3.org/2000/svg">
<path d="M48.113 22.8688H25.0753V29.7052H41.4171C40.6055 39.2887 32.6297 43.378 25.1065 43.378C20.2632 43.378 15.6183 41.454 12.1936 38.0293C8.76884 34.6046 6.84485 29.9597 6.84485 25.1164C6.84485 20.2731 8.76884 15.6282 12.1936 12.2035C15.6183 8.77875 20.2632 6.85476 25.1065 6.85476C29.6972 6.84762 34.1117 8.62127 37.4214 11.8026L42.2131 6.83915C37.5848 2.36444 31.3718 -0.0938042 24.9348 0.0027399C21.6368 0.0263114 18.3758 0.699237 15.3379 1.98309C12.3 3.26695 9.54469 5.1366 7.22934 7.48529C4.91399 9.83397 3.08392 12.6157 1.84362 15.6716C0.603313 18.7276 -0.0229301 21.9979 0.000641496 25.2959C0.0242131 28.5939 0.697138 31.8549 1.98099 34.8928C3.26485 37.9307 5.1345 40.686 7.48318 43.0014C9.83187 45.3167 12.6136 47.1468 15.6695 48.3871C18.7255 49.6274 21.9958 50.2536 25.2938 50.2301C38.7325 50.2301 48.5813 41.0212 48.5813 27.3952C48.6091 25.8754 48.4678 24.3573 48.1599 22.8688H48.113ZM66.9834 17.921C63.7968 17.9334 60.6851 18.8888 58.0407 20.6669C55.3962 22.445 53.3374 24.9662 52.1236 27.9126C50.9098 30.859 50.5955 34.0989 51.2202 37.2237C51.8449 40.3485 53.3807 43.2184 55.634 45.4717C57.8873 47.725 60.7572 49.2608 63.8821 49.8856C67.0069 50.5103 70.2467 50.1959 73.1931 48.9822C76.1396 47.7684 78.6607 45.7095 80.4388 43.0651C82.2169 40.4206 83.1724 37.309 83.1847 34.1224C83.2185 31.9855 82.8224 29.8636 82.0202 27.8827C81.2179 25.9018 80.0258 24.1023 78.5146 22.5911C77.0034 21.0799 75.2039 19.8878 73.2231 19.0856C71.2422 18.2833 69.1203 17.8873 66.9834 17.921ZM67.077 24.2579C69.0413 24.1422 70.9949 24.6194 72.6846 25.6275C74.3744 26.6356 75.7222 28.1282 76.5533 29.9117C77.3844 31.6952 77.6604 33.6872 77.3456 35.6295C77.0307 37.5717 76.1395 39.3746 74.7876 40.8042C73.4356 42.2338 71.6853 43.2242 69.7636 43.6469C67.842 44.0696 65.8376 43.9051 64.0105 43.1748C62.1835 42.4445 60.618 41.182 59.5172 39.5512C58.4164 37.9203 57.831 35.9963 57.837 34.0287C57.7714 32.773 57.9616 31.517 58.396 30.337C58.8303 29.1569 59.4997 28.0774 60.3637 27.1637C61.2277 26.2501 62.2682 25.5215 63.4222 25.022C64.5762 24.5225 65.8196 24.2626 67.077 24.2579ZM102.289 17.921C99.1019 17.9303 95.9887 18.8831 93.3422 20.6593C90.6957 22.4356 88.6344 24.9557 87.4183 27.9019C86.2021 30.848 85.8855 34.0883 86.5085 37.2142C87.1315 40.34 88.666 43.2114 90.9187 45.4663C93.1714 47.7211 96.0413 49.2585 99.1666 49.8845C102.292 50.5104 105.532 50.197 108.48 48.9837C111.427 47.7704 113.949 45.7115 115.728 43.0667C117.507 40.4219 118.463 37.3096 118.475 34.1224C118.509 31.9868 118.113 29.8662 117.312 27.8864C116.511 25.9065 115.32 24.1078 113.81 22.5968C112.301 21.0858 110.503 19.8934 108.524 19.0902C106.545 18.287 104.425 17.8894 102.289 17.921ZM102.383 24.2579C104.347 24.1422 106.301 24.6194 107.99 25.6275C109.68 26.6356 111.028 28.1282 111.859 29.9117C112.69 31.6952 112.966 33.6872 112.651 35.6295C112.337 37.5717 111.445 39.3746 110.093 40.8042C108.741 42.2338 106.991 43.2242 105.069 43.6469C103.148 44.0696 101.143 43.9051 99.3164 43.1748C97.4893 42.4445 95.9239 41.182 94.823 39.5512C93.7222 37.9203 93.1368 35.9963 93.1428 34.0287C93.0773 32.773 93.2674 31.517 93.7018 30.337C94.1361 29.1569 94.8056 28.0774 95.6696 27.1637C96.5336 26.2501 97.5741 25.5215 98.7281 25.022C99.882 24.5225 101.125 24.2626 102.383 24.2579ZM136.893 17.9366C128.215 17.9366 121.394 25.5378 121.394 34.0599C121.33 38.2244 122.9 42.2482 125.769 45.2681C128.637 48.2881 132.574 50.0639 136.737 50.2144C138.416 50.3059 140.094 49.9987 141.632 49.3178C143.17 48.6369 144.525 47.6017 145.586 46.2968V49.4184C145.586 54.9906 142.199 58.3151 137.096 58.3151C135.316 58.3004 133.58 57.7548 132.112 56.7483C130.644 55.7417 129.51 54.3199 128.854 52.6649L122.611 55.2559C123.819 58.0988 125.843 60.5194 128.426 62.2115C131.01 63.9035 134.038 64.7909 137.127 64.7613C145.758 64.7613 152.329 59.3297 152.329 47.9356V18.9043H145.602V21.6358C144.499 20.4328 143.151 19.4803 141.648 18.8422C140.146 18.2041 138.524 17.8953 136.893 17.9366ZM137.517 24.2579C141.778 24.2579 146.133 27.8947 146.133 34.0911C146.133 40.2876 141.778 43.8775 137.423 43.8775C136.192 43.8462 134.979 43.5673 133.858 43.0574C132.737 42.5476 131.729 41.8172 130.896 40.9098C130.063 40.0024 129.421 38.9366 129.009 37.7758C128.596 36.6151 128.422 35.3832 128.495 34.1536C128.495 27.9103 132.959 24.2579 137.517 24.2579ZM182.469 17.8898C174.29 17.8898 167.407 24.3984 167.407 34.0131C167.326 36.132 167.678 38.2452 168.441 40.2237C169.203 42.2021 170.362 44.0044 171.844 45.5205C173.327 47.0366 175.102 48.2347 177.063 49.0417C179.024 49.8488 181.129 50.2478 183.249 50.2144C185.908 50.2197 188.529 49.5772 190.884 48.3426C193.239 47.1079 195.258 45.3183 196.766 43.1283L191.178 39.4135C190.369 40.7872 189.21 41.9222 187.821 42.7034C186.431 43.4847 184.859 43.8844 183.265 43.8619C181.609 43.9303 179.97 43.5016 178.56 42.631C177.15 41.7603 176.032 40.4876 175.351 38.9765L197 30.0018L195.876 27.364C194.844 24.6238 193.013 22.2569 190.619 20.5703C188.226 18.8837 185.381 17.9553 182.453 17.9054L182.469 17.8898ZM182.75 24.1331C183.971 24.0804 185.182 24.3769 186.241 24.9879C187.299 25.5988 188.162 26.4988 188.728 27.5825L174.274 33.6229C174.203 32.4422 174.366 31.2589 174.754 30.1415C175.142 29.024 175.747 27.9945 176.535 27.1122C177.323 26.23 178.278 25.5125 179.344 25.0011C180.411 24.4898 181.568 24.1948 182.75 24.1331ZM157.09 49.2623H164.207V1.67283H157.09V49.2623Z" fill="white"/>
</svg>
