<svg width="251" height="88" viewBox="0 0 251 88" fill="none" xmlns="http://www.w3.org/2000/svg">
<path d="M250.01 0L67.1055 77.8788C51.9381 84.2957 39.1979 87.5146 28.8953 87.5146C17.2281 87.5146 8.7589 83.4311 3.50865 75.2536C0.206404 70.0034 -0.762393 63.3468 0.591839 55.2735C1.94607 47.2002 5.55041 38.606 11.384 29.4598C16.2488 22.0636 24.218 12.3443 35.3123 0.29168C31.5492 6.21557 28.7898 12.72 27.1452 19.5426C24.2284 31.9911 26.8535 41.127 35.0206 46.9606C38.9062 49.6795 44.2502 51.0441 51.063 51.0441C56.5008 51.0441 62.6261 50.1691 69.4389 48.419L250.01 0Z" fill="#ECECEC"/>
</svg>
