<svg width="31" height="33" viewBox="0 0 31 33" fill="none" xmlns="http://www.w3.org/2000/svg">
<path d="M15.5 32.9394C15.0297 32.9394 14.5925 32.8171 14.1841 32.6053L10.0192 30.2156C9.39362 29.8828 9.70713 29.7618 9.8955 29.7013C10.7398 29.4291 10.8965 29.3686 11.7738 28.8832C11.8673 28.8227 11.9937 28.8529 12.0872 28.9134L15.2814 30.7601C15.4051 30.8206 15.5633 30.8206 15.6568 30.7601L28.1514 23.7696C28.2751 23.7091 28.3384 23.5881 28.3384 23.4368V9.48606C28.3384 9.33481 28.2765 9.21381 28.1514 9.15331L15.6568 2.19444C15.5316 2.13394 15.3749 2.13394 15.2814 2.19444L2.78675 9.15331C2.66162 9.21381 2.59838 9.36506 2.59838 9.48606V23.4368C2.59838 23.5578 2.66162 23.7091 2.78675 23.7696L6.1995 25.6767C8.0475 26.5842 9.20525 25.5254 9.20525 24.4667V10.6974C9.20525 10.5159 9.362 10.3344 9.582 10.3344H11.1784C11.3668 10.3344 11.5538 10.4857 11.5538 10.6974V24.4653C11.5538 26.8564 10.2076 28.2479 7.85912 28.2479C7.13862 28.2479 6.57487 28.2479 4.9785 27.4917L1.69088 25.6767C1.29472 25.4588 0.963889 25.1392 0.732565 24.7508C0.50124 24.3623 0.377802 23.9192 0.375 23.4671V9.51631C0.375 8.60881 0.8755 7.76181 1.69088 7.30806L14.1855 0.316186C14.5923 0.107579 15.0429 -0.0012207 15.5 -0.0012207C15.9571 -0.0012207 16.4077 0.107579 16.8145 0.316186L29.3105 7.30669C30.1245 7.76044 30.625 8.60744 30.625 9.51494V23.4657C30.625 24.3732 30.1245 25.2202 29.3105 25.6753L16.8159 32.6644C16.4006 32.8445 15.9527 32.9371 15.5 32.9367M19.3514 23.3433C13.872 23.3433 12.7445 20.9233 12.7445 18.8649C12.7445 18.6834 12.9012 18.5019 13.1199 18.5019H14.7479C14.9363 18.5019 15.0916 18.6229 15.0916 18.8044C15.3433 20.4077 16.0638 21.1942 19.383 21.1942C22.0134 21.1942 23.1409 20.6194 23.1409 19.2582C23.1409 18.4717 22.8274 17.8969 18.7257 17.5037C15.3116 17.1696 13.1831 16.4449 13.1831 13.8118C13.1831 11.3602 15.3116 9.90681 18.8825 9.90681C22.8906 9.90681 24.8638 11.2392 25.114 14.1446C25.1112 14.2429 25.0781 14.338 25.0191 14.4168C24.9572 14.4773 24.8637 14.5378 24.7689 14.5378H23.1409C23.0618 14.5359 22.9855 14.5083 22.9235 14.4592C22.8614 14.4101 22.8171 14.3421 22.7971 14.2656C22.4204 12.6018 21.4496 12.0559 18.8825 12.0559C16.0005 12.0559 15.6568 13.0239 15.6568 13.7513C15.6568 14.6286 16.0638 14.9008 19.9468 15.3848C23.7981 15.8688 25.6145 16.5646 25.6145 19.1661C25.5829 21.8308 23.3292 23.3433 19.3514 23.3433Z" fill="white"/>
</svg>
