<svg width="32" height="17" viewBox="0 0 32 17" fill="none" xmlns="http://www.w3.org/2000/svg">
<path d="M15.6923 0C6.89285 0 0 3.73346 0 8.5C0 13.2665 6.89285 17 15.6923 17C24.4918 17 31.3846 13.2665 31.3846 8.5C31.3846 3.73346 24.4918 0 15.6923 0ZM14.0629 2.61538H15.776L15.232 5.23077H16.762C17.7323 5.23077 18.3835 5.36677 18.7549 5.70546C19.1172 6.04023 19.227 6.58946 19.0818 7.33746L18.4018 10.4615H16.66L17.2864 7.57285C17.3622 7.17662 17.3322 6.90069 17.1988 6.75554C17.0667 6.61039 16.7751 6.53846 16.3383 6.53846H14.9665L14.1388 10.4615H12.4231L14.0629 2.61538ZM6.53846 5.23077H10.0248C11.6868 5.23077 12.6938 6.34492 12.3002 8.007C11.8425 9.93846 10.6185 10.4615 8.364 10.4615H7.28646L6.94515 12.4231H5.21246L6.53846 5.23077ZM20.2692 5.23077H23.7555C25.4176 5.23077 26.4245 6.34492 26.0309 8.007C25.5732 9.93846 24.3479 10.4615 22.0948 10.4615H21.0172L20.6759 12.4231H18.9432L20.2692 5.23077ZM8.02269 6.53846L7.52969 9.15385H8.64777C9.61546 9.15385 10.5152 9.044 10.6655 7.60161C10.7218 7.04192 10.489 6.53846 9.37092 6.53846H8.02269ZM21.7535 6.53846L21.2605 9.15385H22.3785C23.3462 9.15385 24.2459 9.044 24.3963 7.60161C24.4525 7.04192 24.2211 6.53846 23.1017 6.53846H21.7535Z" fill="white"/>
</svg>
