<svg width="42" height="42" viewBox="0 0 42 42" fill="none" xmlns="http://www.w3.org/2000/svg">
<path d="M19.9584 24.7497H17.7438C14.5563 24.7497 12.9646 24.7497 12.3626 23.7142C11.7584 22.6788 12.5459 21.2934 14.1209 18.5246L19.0521 9.8434C19.8334 8.4684 20.2251 7.7809 20.6126 7.88507C21.0001 7.98715 21.0001 8.77673 21.0001 10.358V16.208C21.0001 16.6996 21.0001 16.9455 21.1521 17.0976C21.3042 17.2496 21.5501 17.2496 22.0417 17.2496H24.2563C27.4438 17.2496 29.0355 17.2496 29.6376 18.2851C30.2417 19.3205 29.4542 20.7059 27.8792 23.4746L22.948 32.1559C22.1667 33.5309 21.7751 34.2184 21.3876 34.1142C21.0001 34.0142 21.0001 33.2246 21.0001 31.6434V25.7913C21.0001 25.2997 21.0001 25.0538 20.848 24.9017C20.6959 24.7497 20.4501 24.7497 19.9584 24.7497Z" fill="#DEDEDE"/>
<path d="M21 39.75C31.3553 39.75 39.75 31.3553 39.75 21C39.75 10.6447 31.3553 2.25 21 2.25C10.6447 2.25 2.25 10.6447 2.25 21C2.25 31.3553 10.6447 39.75 21 39.75Z" stroke="#DEDEDE" stroke-width="4.16667"/>
</svg>
