<svg width="51" height="49" viewBox="0 0 51 49" fill="none" xmlns="http://www.w3.org/2000/svg">
<path d="M8.78913 19.0646L0 26.6394L25.5578 48.9014L51 26.7551L42.1531 19.1225L25.5 43.5238L8.78913 19.0646ZM32.4966 27.7959L35.33 19.4116L43.5408 14.8435L32.4966 27.7959ZM18.5612 27.9115L15.6123 19.4116L7.51702 14.9013L18.5612 27.9115ZM25.5 0.0986938L47.1259 9.8129H39.3776L37.7585 12.2993H13.3572L11.7381 9.8129H3.98975L25.5 0.0986938ZM23.8232 6.05454L25.5 6.92174L27.1768 6.05444V4.31974L25.5 3.45234L23.8232 4.31974V6.05454ZM7.51702 14.8437H43.5409L32.3231 16.5205L32.4966 27.7959L25.9626 35.8912V25.3095C25.9626 24.8434 25.0953 24.8434 25.0953 25.3095V35.8911L18.5612 27.9115L18.7347 16.5204L7.51702 14.8437ZM25.8477 23.2502C26.3092 22.9842 26.3092 22.3154 25.8477 22.0493C25.3861 21.7832 24.8061 22.1175 24.8061 22.6498C24.8061 23.182 25.3861 23.5164 25.8477 23.2502ZM25.8477 20.359C26.3092 20.0931 26.3092 19.4242 25.8477 19.1581C25.3861 18.8921 24.8061 19.2264 24.8061 19.7586C24.8061 20.2908 25.3861 20.6252 25.8477 20.359ZM25.8477 17.3522C26.3092 17.0863 26.3092 16.4174 25.8477 16.1513C25.3861 15.8852 24.8061 16.2196 24.8061 16.7518C24.8061 17.284 25.3861 17.6184 25.8477 17.3522Z" fill="#DEDEDE"/>
</svg>
