<svg width="50" height="50" viewBox="0 0 50 50" fill="none" xmlns="http://www.w3.org/2000/svg">
<path fill-rule="evenodd" clip-rule="evenodd" d="M24.8677 0.782473C24.8232 0.78544 24.7788 0.789739 24.7345 0.79537H24.4724L24.2662 0.898481C24.0759 0.962361 23.8952 1.052 23.7292 1.16489L14.8918 5.5856L5.586 14.8912L1.18667 23.6854C1.05807 23.8683 0.958087 24.0696 0.890169 24.2826L0.795655 24.4716V24.7122C0.776448 24.8792 0.776448 25.0479 0.795655 25.2149V43.2717L1.2124 43.8474C1.57417 44.3487 1.98213 44.8491 2.45833 45.3254C4.7504 47.6173 7.76611 48.7868 11.0938 49.0802C11.3199 49.1536 11.5564 49.1898 11.7941 49.1876H46.6542C46.8443 49.2199 47.0378 49.2272 47.2298 49.2091C47.2816 49.2037 47.3332 49.1966 47.3845 49.1876H49.189V47.3745C49.2287 47.1356 49.2287 46.8917 49.189 46.6528V11.7935C49.1912 11.5558 49.1549 11.3193 49.0815 11.0932C48.788 7.76583 47.6184 4.75053 45.3266 2.45793H45.3223V2.45369C44.847 1.981 44.3493 1.57636 43.853 1.21635L43.2729 0.79531H25.19C25.083 0.783134 24.9753 0.778883 24.8677 0.782473ZM32.9319 5.19458H41.7693C41.9187 5.32058 42.087 5.44004 42.2204 5.5727C43.8301 7.18506 44.7007 9.49269 44.781 12.3048L32.9319 5.19458ZM24.8979 5.50398L28.8762 7.88831L27.3338 17.3399L23.4371 21.2365L17.3406 27.3328L7.88884 28.8751L5.50445 24.8969L9.20356 17.4946L17.4952 9.20303L24.8979 5.50398ZM32.9362 10.3242L40.3945 14.8009L32.034 15.8448L32.9362 10.3242ZM43.7628 18.8135C42.4786 22.9457 39.9689 27.4459 36.3517 31.6419L32.3647 20.2355L43.7628 18.8135ZM28.4723 22.4223L31.7203 31.7193L22.4232 28.4713L26.5476 24.347L28.4723 22.4223ZM44.7896 27.3285V41.6778L38.7102 35.5987C41.1383 32.9505 43.1743 30.1599 44.7896 27.3285ZM15.8454 32.033L14.8015 40.3933L10.3248 32.9352L15.8454 32.033ZM20.2363 32.3638L31.6386 36.3506C27.4437 39.966 22.9456 42.4777 18.8142 43.7615L20.2363 32.3638ZM5.19499 32.9309L12.3053 44.7798C9.48988 44.6994 7.18087 43.827 5.56875 42.2149C5.4379 42.084 5.31972 41.9159 5.19499 41.7681V32.9309ZM35.5998 38.7092L41.679 44.7884H27.3294C30.161 43.173 32.9517 41.1369 35.5998 38.7092Z" fill="white"/>
</svg>
