<svg width="45" height="45" viewBox="0 0 45 45" fill="none" xmlns="http://www.w3.org/2000/svg">
<path d="M31.4025 29.875H32.125C34.25 29.875 36.375 29.45 38.2238 28.7275C36.7363 37.8013 28.8737 44.75 19.375 44.75C8.75 44.75 0.25 36.1862 0.25 25.625C0.25 16.1263 7.19875 8.26375 16.2725 6.77625C15.55 8.625 15.125 10.75 15.125 12.875V13.5975C10.195 15.34 6.625 20.0575 6.625 25.625C6.625 29.0065 7.9683 32.2495 10.3594 34.6406C12.7505 37.0317 15.9935 38.375 19.375 38.375C24.9425 38.375 29.66 34.805 31.4025 29.875ZM32.125 19.25C33.8158 19.25 35.4373 18.5784 36.6328 17.3828C37.8283 16.1873 38.5 14.5658 38.5 12.875C38.5 11.1842 37.8283 9.56274 36.6328 8.36719C35.4373 7.17165 33.8158 6.5 32.125 6.5C30.4342 6.5 28.8127 7.17165 27.6172 8.36719C26.4216 9.56274 25.75 11.1842 25.75 12.875C25.75 14.5658 26.4216 16.1873 27.6172 17.3828C28.8127 18.5784 30.4342 19.25 32.125 19.25ZM32.125 0.125C35.5065 0.125 38.7495 1.4683 41.1406 3.85939C43.5317 6.25048 44.875 9.49349 44.875 12.875C44.875 16.2565 43.5317 19.4995 41.1406 21.8906C38.7495 24.2817 35.5065 25.625 32.125 25.625C28.7435 25.625 25.5005 24.2817 23.1094 21.8906C20.7183 19.4995 19.375 16.2565 19.375 12.875C19.375 5.82 25.0912 0.125 32.125 0.125Z" fill="#DEDEDE"/>
</svg>
