<svg width="387" height="271" viewBox="0 0 387 271" fill="none" xmlns="http://www.w3.org/2000/svg">
<path d="M150.209 129.248H134.306C134.723 126.133 136.31 120.726 142.538 120.726C146.612 120.726 149.762 123.031 150.209 129.248ZM232.685 120.871C232.402 120.871 224.17 119.803 224.17 132.941C224.17 146.08 232.396 145.011 232.685 145.011C240.531 145.011 241.201 136.84 241.201 132.941C241.201 119.809 232.957 120.871 232.685 120.871ZM85.8984 135.21C85.237 135.729 84.7109 136.4 84.3652 137.166C84.0194 137.932 83.8642 138.771 83.9128 139.61C83.9128 142.495 85.1681 143.261 85.8984 143.865C88.7349 146.098 94.9934 145.144 98.53 144.438V134.215C95.3192 133.569 88.4331 133.032 85.8984 135.21ZM386.25 121.016C386.25 173.872 337.969 214.192 286.453 203.353C275.366 223.269 243.766 246.052 206.668 228.478C181.827 286.445 99.3085 284.11 77.6302 225.357C5.37733 239.775 -30.2905 141.849 32.2036 105.089C11.2314 57.1516 45.8672 0.3125 101.191 0.3125C112.697 0.319645 124.046 2.97429 134.36 8.07093C144.675 13.1676 153.679 20.5695 160.674 29.7037C173.167 16.7885 190.488 8.69533 209.649 8.69533C235.202 8.69533 257.327 22.89 269.277 44.0432C325.295 19.4922 386.25 61.0805 386.25 121.016ZM72.6935 140.207C72.6935 133.11 65.6384 131.052 61.9086 129.845C58.7281 128.572 53.8155 127.727 53.8155 124.45C53.8155 118.74 64.0753 120.43 69.006 123.17C69.006 123.17 69.7121 123.599 69.9957 122.887C70.1406 122.464 71.42 118.915 71.5588 118.487C71.6129 118.318 71.599 118.135 71.5202 117.976C71.4413 117.817 71.3036 117.695 71.1364 117.636C63.695 113.031 46.5733 112.5 46.5733 125.301C46.5733 132.82 53.5077 134.619 57.3642 135.663C60.2128 136.617 65.3125 137.473 65.3125 140.914C65.3125 143.328 63.182 145.174 59.7782 145.174C55.6426 145.167 51.6202 143.823 48.3114 141.342C48.0278 141.203 47.4544 140.914 47.3156 141.771L45.8672 146.279C45.5835 146.846 46.006 146.991 46.006 147.13C47.0621 147.975 52.2222 151.107 59.7782 151.107C67.7265 151.107 72.6935 146.846 72.6935 140.177V140.207ZM92.006 114.51C85.8923 114.51 80.7444 116.423 79.0907 117.636C79.0246 117.682 78.9683 117.74 78.9251 117.808C78.8819 117.876 78.8527 117.952 78.8392 118.031C78.8257 118.11 78.8282 118.191 78.8465 118.27C78.8648 118.348 78.8986 118.422 78.9459 118.487L80.509 122.748C80.5514 122.896 80.6488 123.022 80.7812 123.1C80.9136 123.179 81.0709 123.204 81.2211 123.17C81.6134 123.17 85.325 120.756 91.4386 120.756C93.8527 120.756 95.6995 121.185 96.9789 122.18C99.1516 123.87 98.8257 127.184 98.8257 128.566C95.9348 128.385 87.2925 126.49 81.0763 130.835C79.6593 131.807 78.5104 133.12 77.736 134.654C76.9617 136.188 76.5869 137.893 76.6465 139.61C76.6465 143.171 77.5578 145.886 80.6236 148.27C88.0107 153.195 102.519 149.477 103.618 149.121C104.571 148.928 105.748 148.723 105.748 147.987V127.54C105.772 124.757 105.941 114.48 91.9999 114.48L92.006 114.51ZM120.1 101.848C120.106 101.753 120.092 101.657 120.058 101.568C120.024 101.479 119.972 101.398 119.905 101.331C119.837 101.263 119.756 101.211 119.667 101.177C119.578 101.144 119.483 101.13 119.387 101.136H113.461C113.366 101.13 113.272 101.145 113.183 101.179C113.095 101.213 113.014 101.266 112.948 101.333C112.881 101.4 112.829 101.481 112.796 101.57C112.763 101.659 112.749 101.753 112.755 101.848V149.526C112.749 149.62 112.763 149.715 112.796 149.804C112.829 149.893 112.881 149.973 112.948 150.041C113.014 150.108 113.095 150.16 113.183 150.194C113.272 150.228 113.366 150.243 113.461 150.238H119.424C119.519 150.244 119.614 150.23 119.703 150.196C119.793 150.163 119.874 150.11 119.941 150.043C120.008 149.976 120.061 149.895 120.094 149.805C120.128 149.716 120.142 149.621 120.136 149.526L120.1 101.848ZM153.746 119.308C152.478 117.914 149.648 114.763 143.094 114.763C140.975 114.763 134.548 114.902 130.601 120.159C126.768 124.763 126.63 131.088 126.63 133.08C126.63 134.963 126.72 141.686 130.89 145.856C132.484 147.613 136.358 150.823 144.657 150.823C151.187 150.823 154.597 149.405 155.87 148.554C156.154 148.409 156.298 148.126 156.015 147.419L154.597 143.297C154.524 143.141 154.4 143.014 154.245 142.937C154.091 142.86 153.914 142.838 153.746 142.875C152.183 143.442 149.913 144.577 144.518 144.577C134.005 144.577 134.349 135.681 134.294 134.498H156.727C156.891 134.495 157.049 134.437 157.177 134.335C157.304 134.232 157.394 134.09 157.433 133.931C157.258 133.931 158.682 125.059 153.758 119.308H153.746ZM175.889 151.107C183.837 151.107 188.81 146.846 188.81 140.177C188.81 133.08 181.749 131.022 178.019 129.815C175.52 128.813 169.926 127.775 169.926 124.419C169.926 122.15 171.911 120.587 175.038 120.587C178.548 120.658 181.996 121.531 185.116 123.14C185.116 123.14 185.828 123.568 186.112 122.856C186.251 122.434 187.53 118.885 187.669 118.457C187.723 118.288 187.709 118.104 187.631 117.946C187.552 117.787 187.414 117.665 187.247 117.606C182.473 114.649 177.144 114.624 175.038 114.624C167.795 114.624 162.69 119.024 162.69 125.27C162.69 132.79 169.618 134.589 173.475 135.633C177.162 136.84 181.423 137.6 181.423 140.883C181.423 143.297 179.298 145.144 175.889 145.144C171.753 145.135 167.731 143.791 164.422 141.312C164.336 141.238 164.231 141.19 164.12 141.173C164.008 141.156 163.894 141.171 163.79 141.215C163.687 141.26 163.597 141.333 163.533 141.426C163.469 141.519 163.432 141.628 163.426 141.74L162.008 146.279C161.724 146.846 162.147 146.991 162.147 147.13C163.185 147.975 168.381 151.107 175.901 151.107H175.889ZM215.509 116.188C215.509 115.759 215.365 115.475 214.797 115.475H207.7C207.7 115.391 208.267 110.08 210.398 107.95C212.908 105.445 217.495 106.96 217.64 106.96C218.346 107.243 218.491 106.96 218.63 106.676L220.338 101.987C220.76 101.419 220.338 101.281 220.193 101.136C217.121 99.9288 209.722 99.4037 205.431 103.695C202.123 107.002 201.206 112.096 200.603 115.475H195.491C195.308 115.491 195.136 115.571 195.006 115.701C194.877 115.832 194.798 116.004 194.785 116.188L193.928 120.871C193.928 121.293 194.073 121.577 194.64 121.577H199.607C194.471 150.485 194.326 151.879 193.36 155.084C192.709 157.269 191.375 159.248 189.812 159.767C189.757 159.767 187.47 160.781 183.994 159.623C183.994 159.623 183.427 159.339 183.143 160.051C182.998 160.48 181.58 164.167 181.435 164.595C181.29 165.024 181.435 165.446 181.719 165.446C184.803 166.653 189.564 166.515 192.509 165.446C196.3 164.07 198.376 160.685 199.468 157.637C201.128 152.984 201.164 151.729 206.565 121.583H213.946C214.13 121.568 214.303 121.488 214.433 121.358C214.563 121.227 214.643 121.055 214.658 120.871L215.509 116.188ZM247.731 125.844C247.393 124.83 244.653 114.914 232.541 114.914C223.337 114.914 218.66 120.949 217.356 125.844C216.753 127.654 215.437 134.293 217.356 140.038C217.41 140.219 220.018 150.974 232.541 150.974C241.563 150.974 246.361 145.174 247.731 140.038C249.668 134.239 248.341 127.654 247.731 125.844ZM275.131 115.765C272.113 114.769 265.1 114.618 261.787 119.03V116.332C261.792 116.238 261.777 116.143 261.743 116.055C261.71 115.966 261.657 115.886 261.59 115.819C261.523 115.752 261.442 115.701 261.353 115.667C261.264 115.634 261.169 115.62 261.075 115.626H255.402C255.307 115.62 255.212 115.634 255.124 115.667C255.035 115.701 254.954 115.752 254.887 115.819C254.819 115.886 254.767 115.966 254.733 116.055C254.699 116.143 254.684 116.238 254.69 116.332V149.695C254.684 149.79 254.699 149.885 254.733 149.973C254.767 150.062 254.819 150.143 254.887 150.21C254.954 150.277 255.034 150.329 255.123 150.363C255.212 150.397 255.307 150.412 255.402 150.407H261.22C261.315 150.412 261.409 150.397 261.498 150.363C261.587 150.329 261.668 150.277 261.735 150.21C261.802 150.143 261.854 150.062 261.888 149.973C261.922 149.885 261.937 149.79 261.932 149.695V132.935C261.932 131.179 261.962 126.073 264.624 123.852C267.581 120.895 271.866 121.824 272.717 122.005C272.898 122.002 273.074 121.947 273.225 121.846C273.376 121.746 273.495 121.604 273.568 121.438C274.276 119.866 274.893 118.254 275.414 116.61C275.474 116.457 275.479 116.289 275.427 116.133C275.375 115.978 275.27 115.845 275.131 115.759V115.765ZM303.381 148.415L302.102 144.016C301.818 143.303 301.251 143.587 301.251 143.587C298.698 144.686 295.125 144.728 294.437 144.728C291.637 144.728 284.075 144.046 284.075 132.802C284.075 129.042 285.191 120.877 294.015 120.877C296.372 120.817 298.722 121.153 300.967 121.873C300.967 121.873 301.535 122.156 301.679 121.444C302.247 119.881 302.669 118.746 303.242 116.9C303.381 116.332 302.959 116.194 302.814 116.194C295.819 113.858 289.331 114.667 286.06 116.194C285.101 116.64 276.265 120.11 276.265 132.802C276.265 134.552 275.915 150.974 293.731 150.974C296.93 150.968 300.102 150.389 303.098 149.266C303.227 149.17 303.324 149.036 303.375 148.883C303.426 148.729 303.428 148.564 303.381 148.409V148.415ZM335.893 124.564C335.41 122.754 332.652 114.769 322.404 114.769C312.748 114.769 308.209 120.871 306.93 125.989C306.234 128.289 305.898 130.683 305.934 133.086C305.934 148.699 317.304 150.829 323.967 150.829C330.497 150.829 333.901 149.411 335.181 148.56C335.464 148.415 335.609 148.132 335.325 147.425L333.901 143.303C333.828 143.147 333.704 143.02 333.55 142.943C333.395 142.866 333.219 142.844 333.05 142.881C331.487 143.448 329.218 144.583 323.822 144.583C313.309 144.583 313.653 135.687 313.605 134.504H336.031C336.196 134.5 336.354 134.442 336.483 134.34C336.611 134.238 336.703 134.096 336.744 133.937C336.599 133.931 337.311 129.67 335.893 124.558V124.564ZM321.837 120.732C315.602 120.732 313.991 126.164 313.605 129.254H329.52C328.988 122.06 324.921 120.726 321.837 120.726V120.732Z" fill="#ECECEC"/>
</svg>
