<svg width="209" height="146" viewBox="0 0 209 146" fill="none" xmlns="http://www.w3.org/2000/svg">
<path d="M81.0139 69.5409H72.4367C72.6613 67.8613 73.5174 64.9448 76.8766 64.9448C79.0737 64.9448 80.773 66.1882 81.0139 69.5409ZM125.497 65.0229C125.344 65.0229 120.905 64.4468 120.905 71.533C120.905 78.6193 125.341 78.0432 125.497 78.0432C129.729 78.0432 130.09 73.6358 130.09 71.533C130.09 64.45 125.644 65.0229 125.497 65.0229ZM46.3281 72.7569C45.9713 73.0367 45.6876 73.3987 45.5011 73.8119C45.3146 74.2251 45.2308 74.6773 45.257 75.1299C45.257 76.6858 45.9342 77.0992 46.3281 77.4247C47.8579 78.6291 51.2333 78.1148 53.1408 77.7339V72.2198C51.4091 71.8715 47.6952 71.5819 46.3281 72.7569ZM208.322 65.1011C208.322 93.6088 182.282 115.356 154.497 109.51C148.517 120.251 131.474 132.539 111.465 123.061C98.0671 154.325 53.5608 153.066 41.8687 121.378C2.8992 129.154 -16.3382 76.3375 17.3678 56.511C6.05653 30.6561 24.7372 1.27802e-05 54.5763 1.27802e-05C60.7816 0.00386668 66.9027 1.43564 72.4659 4.18451C78.0291 6.93337 82.8852 10.9256 86.6581 15.8521C93.396 8.88632 102.738 4.52127 113.073 4.52127C126.855 4.52127 138.788 12.1771 145.233 23.5861C175.446 10.3446 208.322 32.7751 208.322 65.1011ZM39.2059 75.4521C39.2059 71.6242 35.4009 70.5142 33.3892 69.8632C31.6738 69.1764 29.0241 68.7206 29.0241 66.9532C29.0241 63.8739 34.5577 64.7853 37.2171 66.2631C37.2171 66.2631 37.5979 66.4942 37.7509 66.1101C37.829 65.8822 38.519 63.9683 38.5939 63.7372C38.6231 63.6461 38.6156 63.5472 38.5731 63.4615C38.5305 63.3758 38.4563 63.3101 38.3661 63.2782C34.3526 60.7946 25.1181 60.5081 25.1181 67.4121C25.1181 71.4679 28.8582 72.4379 30.9382 73.0011C32.4746 73.5154 35.2251 73.9776 35.2251 75.833C35.2251 77.135 34.0761 78.131 32.2402 78.131C30.0097 78.1273 27.8402 77.4022 26.0556 76.0641C25.9026 75.9892 25.5932 75.8329 25.5184 76.2952L24.7373 78.7267C24.5843 79.0327 24.8121 79.1108 24.8121 79.1857C25.3817 79.6414 28.1649 81.3307 32.2402 81.3307C36.5271 81.3307 39.2059 79.0327 39.2059 75.4358V75.4521ZM49.6221 61.5921C46.3247 61.5921 43.5483 62.624 42.6564 63.2782C42.6207 63.3029 42.5901 63.3345 42.5668 63.3711C42.5436 63.4077 42.528 63.4485 42.5208 63.4912C42.5135 63.534 42.5148 63.5778 42.5247 63.62C42.5346 63.6622 42.5527 63.7021 42.5782 63.7372L43.4212 66.0352C43.4441 66.115 43.4967 66.1831 43.5681 66.2254C43.6395 66.2678 43.7244 66.2813 43.8054 66.2631C44.017 66.2631 46.0187 64.9611 49.3161 64.9611C50.6181 64.9611 51.6143 65.1922 52.3044 65.7293C53.4762 66.6407 53.3004 68.4277 53.3004 69.1731C51.7412 69.0754 47.0799 68.0534 43.7272 70.397C42.9629 70.9212 42.3432 71.6297 41.9256 72.4571C41.5079 73.2844 41.3059 74.2037 41.338 75.1299C41.338 77.0504 41.8295 78.5151 43.4831 79.8009C47.4672 82.457 55.2925 80.4519 55.8849 80.2598C56.3992 80.1557 57.0339 80.045 57.0339 79.6479V68.6198C57.0469 67.1192 57.1381 61.5758 49.6189 61.5758L49.6221 61.5921ZM64.7744 54.763C64.7778 54.7117 64.7701 54.6603 64.752 54.6121C64.7339 54.564 64.7057 54.5203 64.6693 54.4839C64.633 54.4476 64.5892 54.4194 64.5411 54.4013C64.493 54.3832 64.4415 54.3756 64.3902 54.3789H61.1939C61.1428 54.3761 61.0917 54.384 61.044 54.4024C60.9963 54.4207 60.9531 54.449 60.9171 54.4853C60.8811 54.5216 60.8531 54.5651 60.8352 54.613C60.8172 54.6609 60.8097 54.712 60.813 54.763V80.4779C60.8097 80.5289 60.8172 80.58 60.8352 80.6279C60.8531 80.6758 60.8811 80.7193 60.9171 80.7557C60.9531 80.792 60.9963 80.8202 61.044 80.8385C61.0917 80.8569 61.1428 80.8648 61.1939 80.862H64.4099C64.4612 80.8653 64.5125 80.8577 64.5606 80.8396C64.6087 80.8215 64.6525 80.7933 64.6888 80.757C64.7252 80.7206 64.7534 80.6769 64.7715 80.6288C64.7896 80.5807 64.7973 80.5292 64.7939 80.4779L64.7744 54.763ZM82.9213 64.1798C82.2378 63.4279 80.711 61.7288 77.176 61.7288C76.0335 61.7288 72.5669 61.8037 70.4381 64.6389C68.3711 67.1225 68.2962 70.5338 68.2962 71.6079C68.2962 72.6235 68.3453 76.2496 70.5945 78.4988C71.4539 79.4461 73.5436 81.1777 78.0193 81.1777C81.5412 81.1777 83.3804 80.4128 84.0672 79.9539C84.2202 79.8757 84.2981 79.7227 84.1451 79.3419L83.3804 77.1187C83.3411 77.0342 83.2742 76.9657 83.1908 76.9242C83.1073 76.8828 83.0123 76.8711 82.9213 76.8909C82.0783 77.1968 80.8542 77.8088 77.9442 77.8088C72.2739 77.8088 72.4597 73.0108 72.4304 72.3728H84.5294C84.6177 72.371 84.703 72.34 84.7719 72.2847C84.8408 72.2293 84.8894 72.1528 84.9102 72.0669C84.8158 72.0669 85.584 67.2819 82.9279 64.1798H82.9213ZM94.8642 81.3307C99.1511 81.3307 101.833 79.0327 101.833 75.4358C101.833 71.6079 98.0248 70.498 96.0132 69.847C94.6656 69.3066 91.6481 68.7467 91.6481 66.9369C91.6481 65.713 92.719 64.87 94.4051 64.87C96.2985 64.908 98.1579 65.379 99.841 66.2468C99.841 66.2468 100.225 66.4779 100.378 66.0938C100.453 65.866 101.143 63.952 101.218 63.7209C101.247 63.6298 101.24 63.5309 101.197 63.4452C101.154 63.3595 101.08 63.2938 100.99 63.2619C98.4153 61.6669 95.5412 61.6539 94.4051 61.6539C90.4991 61.6539 87.7452 64.0269 87.7452 67.3959C87.7452 71.4516 91.4822 72.4217 93.5621 72.9848C95.551 73.6358 97.849 74.0459 97.849 75.8166C97.849 77.1187 96.7033 78.1147 94.8642 78.1147C92.6338 78.1101 90.4646 77.3851 88.6796 76.0478C88.6333 76.0081 88.5768 75.9822 88.5166 75.973C88.4563 75.9638 88.3947 75.9717 88.3388 75.9958C88.2828 76.0199 88.2347 76.0592 88.2 76.1092C88.1653 76.1593 88.1453 76.2181 88.1423 76.2789L87.3775 78.7267C87.2246 79.0327 87.4523 79.1108 87.4523 79.1857C88.0122 79.6414 90.8147 81.3307 94.8705 81.3307H94.8642ZM116.233 62.497C116.233 62.2659 116.155 62.1129 115.85 62.1129H112.021C112.021 62.0673 112.327 59.2029 113.476 58.0538C114.831 56.703 117.304 57.52 117.382 57.52C117.763 57.673 117.841 57.5201 117.916 57.3671L118.838 54.8379C119.065 54.5319 118.837 54.4571 118.759 54.3789C117.102 53.7279 113.112 53.4447 110.798 55.759C109.014 57.5428 108.519 60.2901 108.194 62.1129H105.437C105.338 62.1212 105.245 62.1644 105.175 62.2348C105.105 62.3052 105.063 62.3981 105.056 62.497L104.594 65.0229C104.594 65.2508 104.672 65.4038 104.977 65.4038H107.657C104.887 80.9955 104.808 81.7474 104.287 83.4758C103.936 84.6542 103.216 85.7218 102.373 86.0017C102.344 86.0017 101.11 86.5486 99.2356 85.9236C99.2356 85.9236 98.9295 85.7706 98.7766 86.1547C98.6984 86.3858 97.9337 88.3747 97.8556 88.6058C97.7775 88.8369 97.8556 89.0647 98.0086 89.0647C99.6719 89.7157 102.24 89.6409 103.828 89.0647C105.873 88.3226 106.992 86.4965 107.582 84.8527C108.477 82.3431 108.496 81.666 111.41 65.407H115.39C115.49 65.3989 115.583 65.3558 115.653 65.2855C115.723 65.2151 115.766 65.122 115.774 65.0229L116.233 62.497ZM133.612 67.7051C133.43 67.1582 131.952 61.8102 125.419 61.8102C120.455 61.8102 117.933 65.0652 117.229 67.7051C116.904 68.6816 116.194 72.2622 117.229 75.361C117.259 75.4586 118.665 81.2591 125.419 81.2591C130.286 81.2591 132.873 78.131 133.612 75.361C134.657 72.2329 133.941 68.6816 133.612 67.7051ZM148.39 62.2691C146.763 61.7321 142.98 61.6507 141.193 64.0301V62.5752C141.196 62.5241 141.188 62.473 141.17 62.4253C141.152 62.3776 141.123 62.3342 141.087 62.2982C141.051 62.2622 141.007 62.2344 140.959 62.2165C140.911 62.1985 140.86 62.191 140.809 62.1943H137.749C137.698 62.191 137.647 62.1985 137.599 62.2165C137.551 62.2344 137.508 62.2622 137.472 62.2982C137.435 62.3342 137.407 62.3776 137.389 62.4253C137.37 62.473 137.362 62.5241 137.365 62.5752V80.5691C137.362 80.6202 137.37 80.6714 137.389 80.7193C137.407 80.7672 137.435 80.8107 137.472 80.8469C137.508 80.8831 137.551 80.9114 137.599 80.9297C137.647 80.948 137.698 80.956 137.749 80.9532H140.887C140.939 80.956 140.99 80.948 141.037 80.9297C141.085 80.9114 141.129 80.8831 141.165 80.8469C141.201 80.8107 141.23 80.7672 141.248 80.7193C141.266 80.6714 141.274 80.6202 141.271 80.5691V71.5298C141.271 70.5826 141.288 67.8288 142.723 66.6309C144.318 65.036 146.629 65.5372 147.088 65.6349C147.186 65.6331 147.281 65.6034 147.362 65.5491C147.444 65.4949 147.508 65.4185 147.547 65.3289C147.929 64.4809 148.262 63.6114 148.543 62.7249C148.575 62.6426 148.578 62.5515 148.55 62.4676C148.522 62.3838 148.465 62.3124 148.39 62.2659V62.2691ZM163.627 79.879L162.937 77.5061C162.784 77.122 162.478 77.275 162.478 77.275C161.101 77.8674 159.174 77.8902 158.803 77.8902C157.293 77.8902 153.214 77.5223 153.214 71.4582C153.214 69.4303 153.816 65.0262 158.575 65.0262C159.846 64.9938 161.114 65.1753 162.325 65.5632C162.325 65.5632 162.631 65.7162 162.709 65.3321C163.015 64.4891 163.243 63.8772 163.552 62.8811C163.627 62.5751 163.399 62.5002 163.321 62.5002C159.549 61.2405 156.049 61.6767 154.285 62.5002C153.768 62.7411 149.002 64.6128 149.002 71.4582C149.002 72.4021 148.813 81.2591 158.422 81.2591C160.148 81.2557 161.859 80.9438 163.474 80.338C163.544 80.2861 163.596 80.2138 163.624 80.131C163.651 80.0483 163.652 79.9591 163.627 79.8757V79.879ZM181.162 67.015C180.902 66.0385 179.414 61.7321 173.887 61.7321C168.679 61.7321 166.231 65.023 165.541 67.7832C165.165 69.0239 164.984 70.3151 165.004 71.6112C165.004 80.032 171.137 81.181 174.73 81.181C178.252 81.181 180.088 80.4161 180.778 79.9571C180.931 79.879 181.009 79.726 180.856 79.3452L180.088 77.122C180.049 77.0375 179.982 76.969 179.898 76.9275C179.815 76.8861 179.72 76.8743 179.629 76.8941C178.786 77.2001 177.562 77.812 174.652 77.812C168.982 77.812 169.167 73.0141 169.141 72.3761H181.237C181.325 72.3739 181.411 72.3428 181.48 72.2876C181.55 72.2324 181.599 72.156 181.621 72.0701C181.543 72.0669 181.927 69.7688 181.162 67.0117V67.015ZM173.581 64.948C170.219 64.948 169.35 67.8776 169.141 69.5442H177.725C177.438 65.6642 175.244 64.9448 173.581 64.9448V64.948Z" fill="white"/>
</svg>
