<svg width="272" height="36" viewBox="0 0 272 36" fill="none" xmlns="http://www.w3.org/2000/svg">
<path d="M108 4.51775V10.5017H98.9703V35.2665H91.9886V10.5017H82.9589V4.51775H108ZM135.916 4.51828V35.267H128.893V4.51775L135.916 4.51828ZM259.853 4.51828V29.1986H272V35.2665H252.83V4.51775L259.853 4.51828ZM221.449 4.51828L234.116 35.267H226.397L224.15 29.1996H211.185L208.919 35.2665H201.407L214.199 4.51775L221.449 4.51828ZM170.673 4.51828C179.068 4.51828 187.421 8.96272 187.421 19.8087C187.421 30.0316 179.234 35.266 171.089 35.266H159.295V4.51828H170.673ZM170.632 10.5017H166.111V29.2405H170.466C176.325 29.2405 180.231 25.5845 180.231 19.7668C180.231 14.2402 176.284 10.5017 170.632 10.5017ZM217.699 11.7109L213.068 23.7368H222.288L217.699 11.7109ZM27.0008 17.9988L36.0012 26.9992L27.0008 36.0002L18.0003 26.9992L27.0008 17.9988ZM8.99991 0L18.0003 8.99938L8.99991 17.9988L0 8.99938L8.99991 0ZM45.0011 0L54.0005 8.99884L45.0011 17.9993L36.0002 8.99938L27.0008 17.9988L18.0003 8.99778L27.0008 0L36.0012 8.99778L45.0011 0Z" fill="#ECECEC"/>
</svg>
