<svg width="52" height="52" viewBox="0 0 52 52" fill="none" xmlns="http://www.w3.org/2000/svg">
<path d="M0 0H52V52H0V0ZM30.94 42.9289C32.3844 45.76 35.3022 47.9267 39.8667 47.9267C44.4889 47.9267 47.9556 45.5289 47.9556 41.1089C47.9556 37.0356 45.6156 35.2156 41.4556 33.4244L40.2422 32.9044C38.1333 32.0089 37.2378 31.4022 37.2378 29.9578C37.2378 28.7733 38.1333 27.8489 39.5778 27.8489C40.9644 27.8489 41.8889 28.4556 42.7267 29.9578L46.5111 27.4444C44.9222 24.6711 42.6689 23.6022 39.5778 23.6022C35.2156 23.6022 32.4133 26.3756 32.4133 30.0444C32.4133 34.0311 34.7533 35.9089 38.2778 37.4111L39.4911 37.9311C41.7444 38.9133 43.0733 39.52 43.0733 41.1956C43.0733 42.5822 41.7733 43.5933 39.7511 43.5933C37.3533 43.5933 35.9667 42.3511 34.9267 40.6178L30.94 42.9289ZM28.8889 23.8333H14.4444V28.1667H18.7778V49.1111H23.8333V28.1667H28.8889V23.8333Z" fill="white"/>
</svg>
