<?xml version="1.0" encoding="UTF-8" standalone="no"?>
<!-- Created with Inkscape (http://www.inkscape.org/) -->

<svg
   xmlns:dc="http://purl.org/dc/elements/1.1/"
   xmlns:cc="http://creativecommons.org/ns#"
   xmlns:rdf="http://www.w3.org/1999/02/22-rdf-syntax-ns#"
   xmlns:svg="http://www.w3.org/2000/svg"
   xmlns="http://www.w3.org/2000/svg"
   xmlns:sodipodi="http://sodipodi.sourceforge.net/DTD/sodipodi-0.dtd"
   xmlns:inkscape="http://www.inkscape.org/namespaces/inkscape"
   width="744.09448819"
   height="1052.3622047"
   id="svg3206"
   version="1.1"
   inkscape:version="0.48+devel r9772"
   sodipodi:docname="New document 6">
   <defs
      id="defs3208" />
   <sodipodi:namedview
      id="base"
      pagecolor="#ffffff"
      bordercolor="#666666"
      borderopacity="1.0"
      inkscape:pageopacity="0.0"
      inkscape:pageshadow="2"
      inkscape:zoom="0.66136926"
      inkscape:cx="372.04724"
      inkscape:cy="526.18109"
      inkscape:document-units="px"
      inkscape:current-layer="layer1"
      showgrid="false"
      inkscape:window-width="1440"
      inkscape:window-height="851"
      inkscape:window-x="0"
      inkscape:window-y="1"
      inkscape:window-maximized="1" />
   <metadata
      id="metadata3211">
      <rdf:RDF>
         <cc:Work
            rdf:about="">
            <dc:format>image/svg+xml</dc:format>
            <dc:type
               rdf:resource="http://purl.org/dc/dcmitype/StillImage" />
            <dc:title></dc:title>
         </cc:Work>
      </rdf:RDF>
   </metadata>
   <g
      inkscape:label="Layer 1"
      inkscape:groupmode="layer"
      id="layer1">
      <path
         style="fill:hsl(297, 86%, 33%)"
         d="m 390.45995,210.85557 c -4.29841,0.0746 -7.14533,0.49375 -7.14533,1.16395 0,1.07227 14.45109,26.86897 32.10549,57.32429 17.65443,30.45528 56.70772,97.96892 86.8109,150.05192 l 54.73775,94.69986 -64.40496,111.67407 -64.43729,111.67406 -13.06205,1.03462 c -11.38783,0.8802 -13.81182,-0.31336 -19.1081,-9.27923 l -6.07838,-10.28152 58.13259,-100.55192 c 31.96192,-55.30127 58.10026,-102.021 58.10026,-103.84976 0,-1.8288 -22.40406,-42.22601 -49.79099,-89.7531 -27.38692,-47.52711 -65.94165,-114.42271 -85.67929,-148.66165 -19.73762,-34.23895 -36.90334,-62.23873 -38.15153,-62.23873 -1.24822,0 -27.33892,43.34878 -57.97093,96.34879 -30.63197,53 -102.5695,177.50909 -159.84846,276.6956 l -104.140747,180.34682 7.565643,15.5516 7.533311,15.5516 21.080338,-36.17929 c 11.589767,-19.89618 51.00279,-88.40648 87.586865,-152.25048 l 66.53886,-116.10352 131.29947,-0.097 131.3318,-0.12932 5.81973,10.21685 c 5.47362,9.61927 5.47362,10.81433 0,20.40137 l -5.81973,10.15219 -118.72239,0.93762 -118.75473,0.90529 -86.71391,150.08425 c -47.70686,82.54869 -86.754692,151.22459 -86.778571,152.60613 -0.02398,1.3815 144.210891,2.52359 320.537541,2.55421 l 320.6022,0.0647 8.56793,-13.57936 c 4.71762,-7.47325 8.56793,-14.41461 8.56793,-15.38994 0,-0.97534 -78.66763,-1.75777 -174.81809,-1.77825 L 361.135,810.70759 347.006,786.03842 c -7.77151,-13.58185 -36.54683,-63.61069 -63.95231,-111.15675 -27.40545,-47.54607 -49.82332,-87.75166 -49.82332,-89.36511 0,-1.61346 1.76721,-6.86091 3.94448,-11.63946 3.32263,-7.29235 6.20334,-8.65668 17.91182,-8.53559 l 13.96734,0.12932 58.29425,101.36022 58.32658,101.32789 174.85042,0.87295 c 153.46963,0.77579 174.64811,0.27311 172.94284,-4.1708 C 731.8834,760.7314 521.26566,394.2573 437.3734,249.65374 l -21.7593,-37.5049 -16.13357,-1.03461 c -3.33147,-0.21444 -6.44153,-0.30342 -9.02058,-0.25866 z m -57.58295,56.74232 11.76878,20.88635 c 6.47158,11.48358 11.14287,22.03522 10.37851,23.44056 -0.76433,1.4053 -20.99874,36.69359 -44.97354,78.43697 l -43.58328,75.91508 -23.44056,0 c -12.8926,0 -23.44056,-0.89068 -23.44056,-1.97224 0,-1.8173 31.35749,-56.4313 89.6561,-156.19496 L 332.877,267.59789 z m 40.18844,72.71424 c 1.9655,-0.0283 71.64728,120.27919 71.64728,123.70149 0,1.24716 -32.35137,2.26323 -71.90594,2.26323 -39.55459,0 -71.43204,-1.23426 -70.80665,-2.7482 3.55068,-8.59574 69.64632,-123.19604 71.06531,-123.21652 z m 199.74591,205.01599 c 1.96802,0.59201 18.55861,28.61006 75.97974,128.16328 l 37.86055,65.6659 -24.60451,0 -24.6045,0 -42.64566,-74.1045 c -23.45085,-40.75756 -43.08722,-75.86186 -43.64794,-78.01665 -0.78653,-3.02248 16.21798,-35.98571 21.50066,-41.6757 0.0339,-0.0365 0.0982,-0.0514 0.16166,-0.0323 z m -270.94055,19.85173 71.61495,0 71.61496,0 -11.2838,19.85173 c -6.20599,10.91461 -22.01193,38.5312 -35.14468,61.36577 -13.13275,22.83457 -24.66874,41.47881 -25.60679,41.41704 -0.93806,-0.0618 -17.32865,-27.67833 -36.43795,-61.36577 L 301.8708,565.17985 z m -87.13422,53.37981 c 2.78257,0.50167 69.35094,113.4906 69.54572,118.04343 0.0602,1.40708 -31.34419,2.55421 -69.80438,2.55421 -38.46018,0 -69.90483,-1.14713 -69.86903,-2.55421 0.13058,-5.10304 67.50684,-118.51597 70.12769,-118.04343 z m 319.2766,0.58197 c 0.0631,-0.0171 0.0956,-0.001 0.12932,0.0323 1.57266,1.57266 18.18734,29.41988 36.92293,61.91541 18.73558,32.49552 33.67182,59.23928 33.17243,59.42586 -5.24221,1.95985 -142.69721,-2.2377 -141.87197,-4.33246 6.14465,-15.59747 67.6697,-115.96436 71.64729,-117.04115 z m -230.00848,150.60156 12.22142,20.5307 12.22142,20.5307 -114.03428,0 -114.03428,0 11.54245,-19.62541 11.54246,-19.62541 90.2704,-0.90529 90.27041,-0.90529 z"
         id="path3241"
         inkscape:connector-curvature="0" />
   </g>
</svg>