<svg width="99" height="99" viewBox="0 0 99 99" fill="none" xmlns="http://www.w3.org/2000/svg">
<path d="M28.0253 3.4927L29.6567 7.20268C33.0134 14.8268 35.0437 22.6647 35.9531 30.4663C26.2832 31.2452 16.6705 31.2688 7.97629 30.7865L3.87939 30.5564L6.47776 33.7293C14.6437 43.7066 24.5785 49.681 35.1796 55.1742C32.8328 68.6444 27.4982 81.1037 20.2364 91.006L17.7893 94.3412L21.8982 93.87C41.1865 91.6547 56.2968 83.9805 67.664 73.3616C74.0565 77.908 80.4244 83.4182 86.6312 90.5647L89.55 93.9242L89.7975 89.4827C90.4854 77.1458 88.1288 64.7114 83.29 53.222C90.5912 40.1418 94.5019 25.5283 95.5805 11.7163L95.9672 6.77942L92.4925 10.3024C85.5998 17.2982 75.7979 22.1523 64.7516 25.4084C55.6763 16.1775 44.5189 8.91101 31.8747 4.75533L28.0255 3.49231L28.0253 3.4927ZM44.0258 16.1214C46.031 16.1249 48.5866 17.0658 51.6272 18.9193C54.8235 21.2317 57.8486 23.772 60.6789 26.5202C53.8988 28.2404 46.7518 29.3978 39.5664 30.1218C39.3647 28.3985 39.1108 26.6817 38.8049 24.9738C38.8044 24.9699 38.8057 24.9656 38.8049 24.9618C38.6394 19.0295 40.4806 16.1156 44.0256 16.1214H44.0258ZM79.4226 25.1489C85.351 25.0362 88.5082 28.5921 86.9394 36.0434C85.4351 40.4901 83.5982 44.866 81.4105 49.0894C77.7903 41.5991 73.1411 34.6515 67.5977 28.4482C70.0762 27.6632 72.4935 26.7882 74.8365 25.8255C76.5003 25.4009 78.0372 25.1752 79.423 25.1488L79.4226 25.1489ZM63.7 29.59C70.144 36.5181 75.3997 44.5149 79.2232 53.0774C77.4768 56.0561 75.548 58.9395 73.4224 61.6941C72.0192 63.5116 70.5209 65.2673 68.9446 66.9631C64.8636 65.7832 60.5934 64.065 57.1861 62.5158C57.1717 62.5093 57.1582 62.5042 57.1435 62.4977C53.3049 60.3407 49.5136 58.3897 45.808 56.5213C43.5506 55.3832 41.3917 54.2795 39.2096 53.1679C40.0517 47.3462 40.3447 41.3652 40.0074 35.3241C44.9884 33.9416 50.5293 32.7563 55.15 31.6019C58.045 31.0238 60.9024 30.3586 63.6998 29.5898L63.7 29.59ZM55.9959 35.9046C55.8322 35.9042 55.6711 35.908 55.5125 35.9167C54.2449 35.9869 53.1489 36.346 52.2616 36.9077C50.4871 38.0311 49.3312 40.026 49.3312 43.1074C49.3312 49.2698 54.7754 56.7972 61.1261 59.1199C64.3015 60.2814 66.8925 59.9774 68.6672 58.854C70.4418 57.7306 71.5977 55.7357 71.5977 52.6543C71.5977 46.492 66.1597 38.9709 59.8092 36.648C58.4199 36.1395 57.1427 35.9078 55.9961 35.9046H55.9959ZM36.4241 36.3941C36.6503 41.4698 36.4117 46.4972 35.7717 51.4155C34.1697 50.5751 32.5902 49.7271 31.0402 48.8535C22.1762 43.026 27.5462 39.2667 36.4243 36.394L36.4241 36.3941ZM38.5694 56.896C40.4377 57.8416 42.279 58.791 44.1768 59.7481C50.8795 63.128 57.7497 66.7137 64.6122 71.2771C63.3053 72.4723 61.9549 73.6191 60.5639 74.7151C47.6923 80.9935 38.2254 75.2507 37.6991 61.0291C38.0203 59.6581 38.3106 58.2801 38.5694 56.896ZM80.9391 57.1919C81.6784 59.1181 82.3456 61.0713 82.9392 63.0474C83.5317 68.3439 78.8841 69.085 72.9329 67.9417C74.0946 66.635 75.2111 65.2888 76.2803 63.9053C77.9529 61.7383 79.4955 59.489 80.9391 57.1919Z" fill="#DEDEDE"/>
</svg>
