<svg width="36" height="40" viewBox="0 0 36 40" fill="none" xmlns="http://www.w3.org/2000/svg">
<path d="M18.0002 21.9167C19.0587 21.9167 19.9168 21.0586 19.9168 20C19.9168 18.9415 19.0587 18.0834 18.0002 18.0834C16.9416 18.0834 16.0835 18.9415 16.0835 20C16.0835 21.0586 16.9416 21.9167 18.0002 21.9167Z" fill="#DEDEDE"/>
<path d="M23.75 20C23.75 25.1117 22.9182 29.6504 21.6417 32.8417C21.0015 34.4421 20.2866 35.6093 19.5908 36.3434C18.9008 37.0737 18.3622 37.25 18 37.25C17.6377 37.25 17.0992 37.0756 16.4092 36.3434C15.7134 35.6074 14.9985 34.4421 14.3583 32.8417C13.0818 29.6504 12.25 25.1117 12.25 20C12.25 14.8882 13.0818 10.3496 14.3583 7.15833C14.9985 5.55792 15.7134 4.39258 16.4092 3.65658C17.0992 2.92633 17.6377 2.75 18 2.75C18.3622 2.75 18.9008 2.92442 19.5908 3.65658C20.2866 4.39258 21.0015 5.55792 21.6417 7.15833C22.9182 10.3496 23.75 14.8882 23.75 20Z" stroke="#DEDEDE" stroke-width="3.83333"/>
<path d="M20.875 24.9794C16.4475 27.5343 12.1005 29.0849 8.70033 29.5737C6.9945 29.8209 5.626 29.7845 4.64275 29.5507C3.66333 29.3168 3.24358 28.9373 3.0615 28.6249C2.87942 28.3125 2.7625 27.7567 3.05 26.7926C3.33942 25.8247 3.993 24.621 5.05867 23.2659C7.18425 20.5672 10.6994 17.5753 15.125 15.0204C19.5525 12.4655 23.8995 10.9149 27.2997 10.4262C29.0055 10.1808 30.374 10.2153 31.3572 10.4492C32.3367 10.683 32.7564 11.0625 32.9385 11.3749C33.1206 11.6873 33.2375 12.2432 32.95 13.2072C32.6625 14.1771 32.007 15.3788 30.9413 16.7339C28.8158 19.4345 25.3025 22.4245 20.875 24.9794Z" stroke="#DEDEDE" stroke-width="3.83333"/>
<path d="M20.875 15.0204C16.4475 12.4636 12.1005 10.9149 8.70033 10.4262C6.9945 10.1789 5.626 10.2154 4.64275 10.4492C3.66333 10.683 3.24358 11.0625 3.0615 11.3749C2.87942 11.6873 2.7625 12.2413 3.05 13.2073C3.33942 14.1752 3.993 15.3788 5.05867 16.7339C7.18425 19.4326 10.6994 22.4245 15.125 24.9794C19.5525 27.5343 23.8995 29.083 27.2997 29.5737C29.0055 29.819 30.374 29.7845 31.3572 29.5507C32.3367 29.3169 32.7564 28.9374 32.9385 28.6249C33.1206 28.3125 33.2375 27.7567 32.95 26.7926C32.6625 25.8228 32.007 24.621 30.9413 23.2659C28.8158 20.5654 25.3025 17.5754 20.875 15.0204Z" stroke="#DEDEDE" stroke-width="3.83333"/>
</svg>
