<svg width="163" height="99" viewBox="0 0 163 99" fill="none" xmlns="http://www.w3.org/2000/svg">
<path d="M45.9261 36.1543C45.9261 38.1715 46.1655 39.7913 46.5374 40.9832C46.9602 42.1752 47.5205 43.4792 48.2642 44.885C48.5149 45.2537 48.6529 45.6873 48.6615 46.133C48.6615 46.6882 48.3151 47.2231 47.6274 47.7783L44.2044 50.0348C43.7984 50.3428 43.3077 50.5188 42.7986 50.5391C42.2434 50.5391 41.7085 50.2742 41.1788 49.7699C40.4375 48.9921 39.7802 48.1385 39.2177 47.2231C38.6076 46.1906 38.05 45.1281 37.5469 44.0395C33.3038 49.0263 27.9961 51.5222 21.6035 51.5222C17.0395 51.5222 13.4076 50.2233 10.7538 47.6204C8.09994 44.992 6.7501 41.5435 6.7501 37.1935C6.7501 32.604 8.36991 28.8346 11.6859 26.0229C15.002 23.2111 19.3775 21.8053 24.9755 21.8053C26.8042 21.8053 28.7143 21.9632 30.706 22.228C32.7231 22.4929 34.7912 22.9463 36.9408 23.42V19.4672C36.9408 15.3566 36.0901 12.4633 34.3939 10.7926C32.6671 9.12182 29.7535 8.29663 25.5613 8.29663C23.6766 8.29663 21.7155 8.51056 19.6984 8.98428C17.7117 9.46756 15.7612 10.0888 13.861 10.8435C13.2243 11.1338 12.5875 11.3478 11.9508 11.5617C11.6736 11.644 11.3885 11.697 11.1002 11.7196C10.331 11.7196 9.95916 11.1644 9.95916 10.0234V7.36957C9.95916 6.51891 10.0661 5.85672 10.331 5.48488C10.7291 4.98111 11.2501 4.58819 11.8438 4.34388C14.0117 3.26106 16.3016 2.44192 18.6644 1.90397C21.4274 1.19131 24.2718 0.843673 27.1251 0.869941C33.5993 0.869941 38.2957 2.32675 41.3468 5.27603C44.3165 8.19475 45.8293 12.6263 45.8293 18.5962V36.1594L45.9261 36.1543ZM23.9313 44.4062C25.709 44.4062 27.5683 44.0853 29.5039 43.4231C31.4941 42.7499 33.2696 41.5598 34.6486 39.9747C35.5247 38.9406 36.1869 37.7996 36.5078 36.5007C36.8287 35.2018 37.0375 33.6075 37.0375 31.7788V29.4968C35.3944 29.0924 33.7294 28.7829 32.0508 28.5698C30.3614 28.3546 28.66 28.2474 26.957 28.2488C23.3201 28.2488 20.6713 28.9671 18.8936 30.4239C17.0904 31.8807 16.2398 33.9538 16.2398 36.6586C16.2398 39.2055 16.8765 41.0902 18.2314 42.3891C19.5303 43.744 21.4354 44.4062 23.9313 44.4062ZM67.4676 50.2691C66.4845 50.2691 65.8223 50.1112 65.3995 49.7139C64.9768 49.393 64.5794 48.6238 64.2585 47.6204L51.5242 5.70391C51.275 5.00155 51.1142 4.27093 51.0453 3.52888C51.0453 2.65275 51.4681 2.17394 52.3188 2.17394H57.6519C58.686 2.17394 59.3787 2.33185 59.7455 2.70369C60.1988 3.0246 60.5146 3.79375 60.8355 4.82778L69.9635 40.7234L78.4243 4.82778C78.6891 3.73772 79.01 3.0246 79.4328 2.70369C80.085 2.30506 80.8454 2.11987 81.6078 2.17394H85.9324C86.9665 2.17394 87.6847 2.33185 88.1075 2.70369C88.5303 3.0246 88.9276 3.79375 89.1415 4.82778L97.7092 41.1462L107.077 4.82778C107.423 3.73772 107.795 3.0246 108.167 2.70369C108.8 2.30549 109.544 2.1199 110.291 2.17394H115.334C116.21 2.17394 116.689 2.59672 116.689 3.52888C116.689 3.79375 116.638 4.05863 116.582 4.405C116.493 4.8657 116.369 5.31874 116.21 5.75994L103.129 47.6509C102.808 48.741 102.441 49.4541 101.988 49.775C101.384 50.1721 100.666 50.3584 99.9454 50.3048H95.2744C94.2404 50.3048 93.5476 50.1469 93.0994 49.775C92.6766 49.4032 92.3047 48.685 92.0908 47.6L83.681 12.6314L75.3222 47.544C75.0573 48.634 74.7364 49.3472 74.2881 49.719C73.8653 50.0908 73.0962 50.2487 72.1131 50.2487L67.4676 50.2691ZM137.109 51.731C134.298 51.731 131.486 51.3847 128.781 50.7479C126.076 50.1112 123.952 49.393 122.546 48.5729C121.67 48.0941 121.09 47.5643 120.876 47.0601C120.654 46.586 120.536 46.0703 120.529 45.5472V42.7864C120.529 41.6454 120.983 41.0902 121.777 41.0902C122.098 41.0902 122.439 41.1411 122.76 41.2481C123.081 41.3805 123.58 41.5945 124.115 41.8033C125.974 42.6234 127.961 43.2601 130.085 43.688C132.26 44.1414 134.359 44.3502 136.534 44.3502C139.957 44.3502 142.611 43.7389 144.439 42.547C146.242 41.4569 147.333 39.4958 147.276 37.4023C147.297 35.997 146.776 34.6378 145.82 33.6075C144.837 32.5989 142.982 31.6718 140.329 30.7957L132.474 28.3558C128.521 27.1078 125.577 25.2792 123.799 22.8393C122.049 20.5837 121.089 17.8145 121.069 14.9593C121.069 12.6773 121.573 10.6856 122.557 8.93844C123.54 7.21166 124.839 5.70391 126.458 4.50688C128.141 3.22717 130.048 2.27352 132.082 1.69513C134.257 1.03294 136.539 0.768066 138.928 0.768066C140.12 0.768066 141.368 0.819003 142.565 0.982003C143.813 1.13991 144.954 1.35385 146.095 1.59325C147.154 1.85813 148.188 2.123 149.171 2.44391C150.154 2.76482 150.924 3.1061 151.453 3.427C152.088 3.75101 152.642 4.21417 153.073 4.78194C153.435 5.31131 153.612 5.945 153.577 6.58513V9.132C153.577 10.273 153.124 10.8588 152.329 10.8588C151.605 10.7846 150.902 10.5683 150.261 10.2221C146.989 8.76771 143.44 8.04291 139.86 8.09797C136.758 8.09797 134.313 8.57678 132.642 9.61081C130.946 10.6448 130.095 12.2086 130.095 14.4397C130.095 15.9525 130.625 17.2514 131.715 18.2855C132.805 19.3195 134.817 20.3535 137.685 21.2857L145.377 23.7001C149.278 24.9481 152.116 26.7003 153.786 28.9263C155.457 31.1268 156.282 33.6737 156.282 36.516C156.282 38.8235 155.778 40.9476 154.876 42.8017C153.899 44.6479 152.554 46.2741 150.924 47.5796C149.227 48.9346 147.236 49.8871 144.903 50.6053C142.383 51.3726 139.763 51.7572 137.13 51.7463L137.109 51.731ZM147.373 78.0708C129.52 91.2585 103.623 98.2319 81.3379 98.2319C50.1132 98.2319 21.9651 86.6894 0.714006 67.486C-0.956744 65.9732 0.556099 63.9051 2.57322 65.1225C25.546 78.4427 53.908 86.5315 83.2226 86.5315C103.012 86.5315 124.742 82.3903 144.77 73.9551C147.74 72.5747 150.287 75.8907 147.368 78.0657L147.373 78.0708ZM154.805 69.6101C152.523 66.6914 139.707 68.2042 133.926 68.9224C132.199 69.1364 131.909 67.5981 133.503 66.4571C143.69 59.3207 160.429 61.3633 162.395 63.7523C164.33 66.2177 161.84 82.9608 152.314 90.9733C150.857 92.2213 149.421 91.5845 150.083 89.9392C152.258 84.5806 157.087 72.5033 154.805 69.6101Z" fill="white"/>
</svg>
