<svg width="278" height="68" viewBox="0 0 278 68" fill="none" xmlns="http://www.w3.org/2000/svg">
<path d="M62.9996 11.2304L60.7245 46.9523L38.9743 0.112061L62.9996 11.2304ZM47.9349 57.4208L31.4998 66.7984L15.0652 57.4213L18.4077 49.3202H44.5919L47.9349 57.4208ZM31.4998 17.8927L40.1118 38.8295H22.8878L31.4998 17.8927ZM2.25169 46.9523L0 11.2304L24.0253 0.112061L2.25169 46.9523ZM258.654 54.3601V20.4392H266.406V26.0926H266.759C267.378 24.1346 268.441 22.6219 269.95 21.5544C271.46 20.487 273.185 19.9532 275.129 19.9532C275.571 19.9532 276.068 19.9717 276.62 20.0086C277.171 20.0455 277.632 20.1009 278 20.1742V27.5282C277.661 27.4104 277.128 27.3039 276.399 27.2078C275.7 27.1142 274.995 27.0661 274.29 27.0639C272.833 27.0639 271.526 27.3772 270.37 28.0033C269.213 28.6288 268.305 29.4932 267.642 30.5976C266.98 31.702 266.649 32.9758 266.649 34.4185V54.3601H258.654ZM242.41 19.9972C244.044 19.9972 245.672 20.1889 247.291 20.5717C248.91 20.9545 250.389 21.5838 251.73 22.4596C253.069 23.3359 254.148 24.5245 254.966 26.0269C255.782 27.5282 256.191 29.4052 256.191 31.6575V54.3601H248.506V49.7003H248.241C247.755 50.6429 247.074 51.5225 246.198 52.3397C245.323 53.1569 244.225 53.8122 242.908 54.3052C241.59 54.7982 240.048 55.0448 238.281 55.0448C236.131 55.0448 234.199 54.6587 232.483 53.8855C230.768 53.1129 229.414 51.9683 228.42 50.4512C227.427 48.9353 226.93 47.0653 226.93 44.8424C226.93 42.9284 227.283 41.3457 227.989 40.0941C228.679 38.8604 229.676 37.8258 230.883 37.0904C232.104 36.3395 233.485 35.7694 235.023 35.379C236.595 34.9828 238.193 34.6987 239.805 34.5287L240.8 34.4239L241.952 34.2968C242.931 34.1861 243.784 34.0818 244.512 33.983L244.642 33.9656C245.878 33.7968 246.78 33.5312 247.347 33.1707C247.913 32.8102 248.197 32.2466 248.197 31.481V31.3485C248.197 29.6849 247.703 28.3969 246.717 27.4842C245.73 26.5709 244.31 26.1143 242.455 26.1143C240.497 26.1143 238.947 26.5416 237.806 27.3957C236.665 28.2498 235.896 29.2581 235.499 30.4211L228.034 29.3612C228.622 27.3001 229.594 25.5735 230.949 24.1824C232.304 22.7908 233.96 21.7456 235.918 21.0462C237.876 20.3474 240.039 19.9972 242.411 19.9972M248.219 38.1948C247.968 38.4011 247.545 38.5923 246.949 38.7687C246.292 38.9595 245.625 39.1143 244.951 39.2324C244.361 39.3388 243.778 39.4355 243.198 39.5224L242.6 39.6092L240.887 39.8509C239.695 40.0132 238.627 40.2782 237.685 40.6463C236.743 41.0144 235.999 41.5259 235.454 42.1813C234.909 42.8361 234.637 43.6793 234.637 44.7099C234.637 46.1819 235.174 47.2933 236.249 48.0443C237.324 48.7952 238.693 49.1704 240.357 49.1704C241.962 49.1704 243.353 48.85 244.531 48.2099C245.709 47.5692 246.618 46.7194 247.258 45.6595C247.899 44.5991 248.219 43.4437 248.219 42.1921L248.219 38.1948ZM217.596 54.3601H225.59V9.13186H217.596V54.3601ZM206.983 40.0941V20.4392H214.978V54.3601H207.226V48.3315H206.873C206.107 50.2308 204.852 51.7837 203.107 52.9912C201.363 54.1988 199.217 54.8021 196.67 54.8021C194.447 54.8021 192.485 54.3052 190.784 53.3111C189.083 52.3174 187.755 50.8677 186.799 48.9608C185.841 47.0544 185.363 44.7463 185.363 42.0379V20.4386H193.357V40.8C193.357 42.9501 193.946 44.6578 195.124 45.924C196.302 47.1896 197.847 47.8227 199.761 47.8227C200.939 47.8227 202.08 47.536 203.185 46.9616C204.289 46.3877 205.198 45.5298 205.912 44.389C206.604 43.2824 206.961 41.9022 206.982 40.2494L206.983 40.0941ZM164.68 19.9972C166.667 19.9972 168.305 20.3322 169.594 21.0017C170.881 21.6723 171.908 22.4748 172.674 23.4092C173.44 24.3448 174.021 25.2238 174.419 26.0481H174.86V20.4392H182.744V54.9123C182.744 57.8128 182.053 60.2127 180.669 62.112C179.284 64.0108 177.392 65.4318 174.993 66.3743C172.593 67.3164 169.869 67.7877 166.822 67.7877C163.95 67.7877 161.485 67.4011 159.424 66.6285C157.362 65.8553 155.706 64.8204 154.455 63.5254C153.204 62.2293 152.335 60.7943 151.849 59.2186L159.049 57.474C159.372 58.1364 159.843 58.7956 160.462 59.451C161.08 60.1058 161.915 60.6509 162.968 61.0853C164.021 61.5191 165.35 61.7368 166.954 61.7368C169.222 61.7368 171.099 61.1885 172.586 60.0917C174.073 58.9943 174.816 57.1944 174.816 54.6918V48.2652H174.419C174.006 49.0895 173.407 49.936 172.619 50.8047C171.831 51.6735 170.793 52.4027 169.505 52.9912C168.217 53.5804 166.601 53.8747 164.657 53.8747C162.052 53.8747 159.692 53.26 157.58 52.0302C155.467 50.8015 153.788 48.9608 152.544 46.5098C151.3 44.0583 150.678 40.9851 150.678 37.2891C150.678 33.5644 151.3 30.4179 152.544 27.8485C153.788 25.2792 155.471 23.3283 157.591 21.9959C159.711 20.6634 162.074 19.9972 164.68 19.9972ZM166.888 26.5563C165.107 26.5563 163.619 27.02 162.427 27.9479C161.235 28.8753 160.336 30.1453 159.733 31.7574C159.129 33.3694 158.828 35.1987 158.828 37.2452C158.828 39.3209 159.133 41.1361 159.744 42.689C160.355 44.2424 161.261 45.4494 162.46 46.3106C163.66 47.1717 165.136 47.6028 166.888 47.6028C168.581 47.6028 170.024 47.1902 171.217 46.3659C172.409 45.5412 173.315 44.3564 173.933 42.8106C174.551 41.2642 174.86 39.4094 174.86 37.2452C174.86 35.1107 174.555 33.2408 173.944 31.6363C173.333 30.0313 172.435 28.7835 171.25 27.8925C170.064 27.002 168.611 26.5563 166.888 26.5563ZM127.432 34.4852V54.3601H119.437V20.4392H127.079V26.2028H127.476C128.256 24.304 129.504 22.7946 131.219 21.6761C132.934 20.5576 135.058 19.9972 137.591 19.9972C139.931 19.9972 141.974 20.4978 143.719 21.4991C145.463 22.5003 146.818 23.9506 147.783 25.8493C148.723 27.7025 149.198 29.9411 149.207 32.5648V54.3601H141.213V33.9987C141.213 31.7318 140.627 29.9574 139.457 28.6766C138.287 27.3957 136.67 26.755 134.61 26.755C133.211 26.755 131.971 27.0607 130.888 27.6715C129.806 28.2829 128.959 29.1625 128.349 30.3104C127.758 31.4207 127.453 32.7581 127.433 34.3218L127.432 34.4852ZM102.86 9.13186L118.804 54.3601H110.059L106.312 43.2075H89.3075L85.5675 54.3601H76.8219L92.7445 9.13186H102.86ZM97.9798 18.4074H97.6258L91.5147 36.6267H104.101L97.9798 18.4074Z" fill="url(#paint0_linear_88_20)"/>
<defs>
<linearGradient id="paint0_linear_88_20" x1="-1.40389e-05" y1="3252.94" x2="27563.4" y2="5886.57" gradientUnits="userSpaceOnUse">
<stop stop-color="white"/>
<stop offset="0.25687" stop-color="#DA5AF7"/>
<stop offset="0.33759" stop-color="#DD57F6"/>
<stop offset="0.56442" stop-color="#B848F4"/>
<stop offset="1" stop-color="#8842F6"/>
</linearGradient>
</defs>
</svg>
