<svg width="270" height="85" viewBox="0 0 270 85" fill="none" xmlns="http://www.w3.org/2000/svg">
<path d="M188.774 6.49311C188.774 6.49311 183.721 8.51416 177.849 14.9815C171.965 21.4601 168.552 28.7359 171.078 30.6672C172.055 31.4082 174.301 31.5542 178.376 27.8601C182.127 24.5997 185.071 20.5143 186.977 15.9247C189.604 9.52469 188.774 6.5717 188.774 6.49311ZM220.92 18.1479C214.396 14.7907 209.624 10.6924 204.661 8.15486C199.923 5.7296 196.858 4.70784 193.029 5.22434C192.497 5.31937 191.972 5.45067 191.457 5.61732C191.457 5.61732 193.433 12.3542 185.585 23.6609C177.635 35.136 170.427 35.0573 168.372 31.9023C166.228 28.5787 169.001 21.797 173.627 15.7675C178.477 9.45732 186.988 4.22504 186.988 4.22504C186.988 4.22504 184.282 2.56328 177.613 6.35837C171.101 10.0187 159.906 18.7879 149.52 33.564C139.123 48.3402 137.057 56.4693 135.575 62.8693C134.093 69.2693 135.44 76.1185 142.536 76.1185C149.632 76.1185 157.896 65.2946 160.232 61.5332C164.566 54.5268 167.384 43.7816 161.489 45.2524C158.581 45.9823 156.235 49.1935 154.752 52.2925C153.817 54.2819 153.101 56.3677 152.619 58.5128C150.556 59.3611 148.618 60.4868 146.859 61.8588C144.905 63.3091 143.08 64.9244 141.402 66.6869C141.402 66.6869 141.425 61.5669 145.501 53.2805C149.588 45.0054 157.065 41.2216 161.31 40.8623C165.127 40.5591 170.101 43.804 165.891 55.7619C161.68 67.7198 149.239 82.2602 136.181 82.4399C124.133 82.6083 116.24 67.2258 133.015 40.3907C151.586 10.7149 173.369 1.62012 180.431 0.609591C187.505 -0.400937 189.807 2.70925 189.807 2.70925C194.062 0.965434 198.657 0.209157 203.247 0.497307C211.892 1.08117 218.562 7.18925 227.387 11.4896C225.085 13.6791 222.896 15.9808 220.931 18.1366M259.713 8.14364C253.728 11.9836 245.453 15.4643 237.492 14.7233C235.482 16.8005 233.327 19.2145 231.171 21.8419C244.959 24.5703 257.052 16.0145 263.474 8.73872C265.817 6.12779 267.83 3.23932 269.47 0.138013C266.543 3.18403 263.268 5.86362 259.713 8.14364ZM241.343 47.0265C241.449 46.8451 241.536 46.6532 241.602 46.4539C241.562 46.1368 241.413 45.8433 241.182 45.6225C240.951 45.4016 240.651 45.267 240.333 45.2412C239.019 45.1851 237.223 45.4321 232.529 50.6307C228.629 54.93 225.273 59.6928 222.536 64.8118C219.842 69.7297 218.753 73.39 220.291 74.3332C220.796 74.5961 221.382 74.6564 221.93 74.5016C222.974 74.2546 224.164 73.2665 225.972 71.1893C226.814 70.2013 227.746 68.809 228.869 67.2707C231.979 63.049 239.794 49.7212 241.343 47.0265ZM192.513 52.6854C193.298 50.6419 194.298 46.6111 192.221 45.0279C189.986 43.3437 184.305 47.2847 184.271 51.3268C184.237 55.47 188.28 57.3339 189.245 57.6033C189.807 57.7493 189.986 57.7156 190.256 57.2777C191.113 55.8011 191.867 54.2666 192.513 52.6854ZM188.212 60.2083C186.803 59.5576 185.489 58.7191 184.305 57.7156C183.12 56.7197 182.13 55.5129 181.385 54.1563C181.296 54.0216 181.217 54.1226 181.127 54.2462C181.049 54.3584 180.689 54.684 177.658 59.1191C174.626 63.5655 169.978 72.7725 174.177 74.3332C176.883 75.3437 181.374 70.6167 183.833 67.4841C185.498 65.295 187.006 62.9913 188.347 60.59C188.482 60.3318 188.347 60.2644 188.212 60.2083ZM236.021 70.8413C234.876 72.6714 233.574 76.1858 237.335 73.9963C241.939 71.3465 248.496 61.3872 248.496 61.3872H251.471C248.765 65.551 245.751 69.5069 242.455 73.2216C237.795 78.3865 232.103 83.0911 228.083 82.6195C223.412 82.0806 224.872 75.9276 224.872 75.9276C224.872 75.9276 218.18 83.0574 213.531 82.5521C207.277 81.856 209.186 74.1199 209.186 74.1199C209.186 74.1199 202.113 82.8104 197.284 82.5409C189.728 82.0918 191.625 72.896 193.736 66.4174C194.859 62.9591 195.903 60.2419 195.903 60.2419C195.903 60.2419 195.151 60.4328 193.546 60.6686C192.692 60.7921 191.165 60.8819 191.165 60.8819C191.165 60.8819 188.021 66.4398 185.495 69.7746C182.98 73.1093 172.268 84.6181 165.958 82.3164C160.142 80.183 162.073 71.2679 165.464 64.183C170.404 53.8532 184.327 38.9984 192.367 40.9633C200.687 42.9844 192.557 58.1648 192.557 58.1648C192.557 58.1648 192.557 58.2209 192.636 58.2658C192.804 58.3219 193.242 58.3781 194.242 58.176C195.28 57.9666 196.299 57.666 197.284 57.2777C197.284 57.2777 205.661 39.7507 214.901 28.2756C224.142 16.8229 242.579 -2.93849 249.821 1.84468C251.572 3.02362 250.786 7.06574 248.406 11.9724C247.333 12.3209 246.242 12.6133 245.139 12.8482C246.733 9.95136 247.788 7.51487 248.103 5.8082C249.192 -0.120232 235.359 12.3766 225.478 25.7942C219.523 33.887 214.232 42.4482 209.658 51.3942C211.442 50.3061 213.146 49.0903 214.755 47.7563C219.166 44.1023 223.357 40.1919 227.308 36.0454C231.11 32.1522 234.676 28.0354 237.986 23.717C239.039 23.6657 240.089 23.557 241.13 23.3914C237.518 28.2922 233.579 32.9437 229.341 37.3142C225.411 41.3002 221.144 45.5893 217.428 48.7107C214.117 51.5229 210.625 54.1146 206.974 56.4693C206.974 56.4693 198.329 73.9065 203.033 75.0181C205.795 75.6918 211.252 67.2707 211.252 67.2707C211.252 67.2707 218.382 56.4132 222.671 51.5065C228.532 44.8482 233.562 40.997 238.615 40.9296C241.546 40.8735 243.275 43.9949 243.275 43.9949L244.656 41.8616H253.155C253.155 41.8616 237.279 68.7865 236.01 70.8188M259.713 8.16609C253.728 11.9949 245.453 15.4756 237.492 14.7345C235.471 16.8117 233.327 19.2258 231.16 21.8531C244.959 24.5816 257.04 16.037 263.474 8.74996C265.818 6.13553 267.831 3.24324 269.47 0.138013C266.543 3.18403 263.268 5.86362 259.713 8.14364M140.358 21.3703H132.274L127.704 28.7584H135.788L140.358 21.3703ZM102.07 46.9367C105.517 42.2209 115.005 25.7044 115.005 25.7044C114.965 25.3891 114.819 25.0969 114.59 24.8763C114.361 24.6557 114.064 24.52 113.748 24.4917C112.434 24.4244 110.244 24.8735 105.888 30.3191C101.543 35.7647 98.1629 40.0875 95.704 44.6012C93.0092 49.5191 91.8191 52.9886 93.3798 53.9318C93.8803 54.1827 94.4551 54.2426 94.9966 54.1002C96.0071 53.8532 97.3321 52.8314 99.1398 50.7542C100.169 49.52 101.15 48.2465 102.082 46.9367M58.7075 24.5928C56.4731 22.9086 50.7917 26.8496 50.758 30.8805C50.7243 35.0237 55.878 36.2924 56.5404 36.3149C56.7345 36.3324 56.9294 36.2934 57.1018 36.2026C57.2207 36.1316 57.3148 36.0258 57.3713 35.8995C57.9796 34.7118 58.5268 33.4939 59.0106 32.2503C59.7966 30.1956 60.7847 26.1759 58.7075 24.5928ZM55.339 38.8524C53.7988 38.3691 52.3271 37.6899 50.9601 36.8314C49.6321 35.9668 48.5524 34.771 47.8274 33.3619C47.7488 33.2272 47.659 33.3282 47.5804 33.4517C47.5018 33.564 47.0527 34.1367 44.0099 38.5942C40.9783 43.063 36.4646 52.1802 40.6864 53.7521C43.3811 54.7626 47.9173 50.0019 50.3874 46.8805C52.2333 44.4302 53.9389 41.8773 55.4962 39.2342C55.5973 38.9647 55.4962 38.8974 55.339 38.8524ZM121.36 41.5921H124.313C124.313 41.5921 109.481 63.0602 101.093 62.0609C96.4226 61.5107 97.8036 55.7395 97.8036 55.7395C97.8036 55.7395 91.2352 63.4307 85.1945 61.87C79.7264 60.4665 83.2633 51.3605 83.2633 51.3605C82.6345 51.6076 70.7889 64.9577 62.4576 61.7577C53.7446 58.3893 58.2696 47.2061 59.9313 43.8489C61.3348 41.0082 62.8843 38.2461 62.8843 38.2461C62.8843 38.2461 61.5482 38.6279 60.6948 38.8188L58.6064 39.2679C58.6064 39.2679 54.4857 45.9598 51.9706 49.3058C49.4443 52.6405 38.7439 64.1269 32.4337 61.8476C26.1236 59.557 27.6843 50.7318 31.2323 43.7142C36.9811 32.3514 50.612 18.3836 58.831 20.4945C67.1285 22.6166 60.2569 36.0791 60.2569 36.0791C60.2569 36.0791 61.9075 36.2924 65.871 33.5865C71.5636 29.7016 79.0752 19.2482 87.2156 20.4833C91.0556 21.0559 94.6261 24.9745 89.7419 32.43C88.1812 34.8216 85.565 36.9549 83.5664 34.844C82.3201 33.5191 83.4092 31.1388 84.7229 29.4882C85.2325 28.8204 85.8983 28.2878 86.6618 27.9374C87.4254 27.587 88.2632 27.4293 89.1019 27.4784C89.1019 27.4784 90.4492 24.4131 87.0247 24.458C84.2513 24.5142 77.245 30.9703 73.2927 37.4826C69.6661 43.4672 64.1643 53.6623 69.6773 55.8855C74.7412 57.929 84.3749 46.4988 88.8324 40.503C93.29 34.5184 103.451 20.9437 111.985 20.4047C114.915 20.2138 116.667 22.8861 116.667 22.8861L117.655 21.3254H126.177C126.177 21.3254 110.121 48.1268 108.863 50.1479C107.875 51.7311 106.573 55.3128 110.177 53.303C113.792 51.3044 121.36 41.5921 121.36 41.5921ZM116.712 84.5283C110.435 80.1818 102.918 77.9874 95.2886 78.2742C93.2259 78.3311 91.2056 78.8731 89.3915 79.8563C87.5773 80.8394 86.0202 82.2361 84.8464 83.9332C81.5903 78.263 75.1678 74.7823 65.231 74.8609C49.1748 75.0406 33.2422 82.4511 20.633 82.4399C8.54038 82.4399 -0.284895 74.8385 0.00703483 61.3311C0.534755 37.651 20.5544 16.3177 35.4878 6.71766C44.0997 1.2159 51.3081 -0.434616 56.0127 0.093104C59.4485 0.474859 63.5804 4.44959 60.9755 10.2994C57.1468 18.844 51.8583 18.1479 52.0492 14.0608C52.1615 11.3998 53.9355 9.7268 55.2604 8.79486C56.2211 8.28452 57.294 8.02208 58.3818 8.03136C59.1453 7.39136 59.6955 2.70925 53.565 4.24749C47.4345 5.78574 39.979 11.8377 32.9053 19.6412C25.8316 27.4559 14.8281 42.2209 12.1109 57.7269C10.8421 64.9128 11.673 78.0272 28.7285 77.8813C43.179 77.769 64.4899 68.2363 84.0717 68.4384C90.8896 68.4115 97.5858 70.2438 103.44 73.7381C108.504 76.8595 114.578 81.4181 116.734 84.5283" fill="white"/>
</svg>
